<?xml version="1.0" encoding="UTF-8"?>
<svg version="1.1" viewBox="0 0 24 24" xmlns="http://www.w3.org/2000/svg">
 <path d="m18.538 1.5v3.225h-3.225v1.6125h3.225v3.225h1.6125v-3.225h3.225v-1.6125h-3.225v-3.225zm-1.5375 13.5 1.55 1.55c-0.96 1.69-3.33 3.04-5.55 3.37v-8.92h3v-2h-3v-1.18c1.16-0.42 2-1.52 2-2.82 0-1.65-1.35-3-3-3s-3 1.35-3 3c0 1.3 0.84 2.4 2 2.82v1.18h-3v2h3v8.92c-2.22-0.33-4.59-1.68-5.55-3.37l1.55-1.55-4-3v3c0 3.88 4.92 7 9 7s9-3.12 9-7v-3zm-5-11c0.55 0 1 0.45 1 1s-0.45 1-1 1-1-0.45-1-1 0.45-1 1-1z"/>
</svg>
