<svg viewBox="0 0 512 512" xmlns="http://www.w3.org/2000/svg">
<path d="m257 2c-27 0-50 22-50 50 0 21 14 40 33 47v45h-38v33h38v242c-34-4-49-20-58-42-8-20-11-46-11-69l16 16 18-18-41-41c-5-5-13-5-18 0l-41 41 18 18 16-16c0.4 25 2 55 14 83 12 28 36 52 75 60l27 27c2 2 7 2 9 0l27-27c37-9 61-32 73-60 12-27 14-57 14-83l16 16 18-18-41-41c-5-5-13-5-18 0l-41 41 18 18 16-16c-0.6 24-3 50-11 69-9 22-24 39-58 42v-242h38v-33h-38v-45c19-7 33-25 33-47 0-27-22-50-50-50zm0 26c13 0 24 11 24 24s-11 24-24 24c-13 0-24-11-24-24s11-24 24-24zm-178 79c-14 0-25 11-25 25 0 11 8 21 18 24v24h-21v13h21v125c-19-1-28-10-33-23-5-11-6-25-6-37l10 10 9-9-21-21c-1-1-3-2-5-2-2 3e-4 -3 0.7-5 2l-21 21 9 9 10-10c0.1 13 1 29 7 43 5 11 13 21 27 26l20 20c2 2 7 2 9 0l21-20c0.8-0.5 4-2 7-3l-10-9c-5 3-13 4-16 4v-125h21v-13h-21v-24c11-3 19-13 19-24 0-14-11-25-25-25zm356 0c-14 0-25 11-25 25 0 11 8 21 18 24v24h-21v13h21v125c-4 0.2-15-3-17-4l-9 9c2 0.9 5 2 8 4l20 20c2 2 7 2 9 0l21-21-0.2-0.2c29-13 32-44 32-68l10 10 9-9-21-21c-2-2-7-2-9 0l-21 21 9 9 10-10c-0.6 38-10 58-38 60v-125h21v-13h-21v-24c11-3 19-13 19-24 0-14-11-25-25-25zm-356 13c7 0 12 5 12 12s-5 12-12 12c-7 0-12-5-12-12s5-12 12-12zm356 0c7 0 12 5 12 12s-5 12-12 12c-7 0-12-5-12-12s5-12 12-12zm-305 116c-2 2e-5 -3 0.6-5 2l-21 21 9 9 10-10c0.2 8-0.8 14-1 19l14-14c0.07-2-0.04-4 0.03-5 0 0 1 1 3 3 5-6 11-7 11-7l-16-16c-1-1-3-2-5-2zm254 0c-2 2e-5 -3 0.6-5 2l-16 16s6 0.6 11 7c1-1 3-3 3-3 0 2 0.1 3 0.1 5l14 14c-0.3-3-1-16-1-19l10 10 9-9-21-21c-1-1-3-2-5-2z"/>
</svg>