<?xml version="1.0" encoding="UTF-8"?>
<!-- Generator: Adobe Illustrator 27.8.1, SVG Export Plug-In . SVG Version: 6.00 Build 0)  -->
<svg width="512" height="512" version="1.1" viewBox="0 0 512 512" xml:space="preserve" xmlns="http://www.w3.org/2000/svg">
<path d="m257 15c-30 4e-6 -55 25-55 55 0 20 11 38 28 47v33h-37v43h37v229c-41-4-62-16-74-33-11-15-16-36-18-63l8 8 23-23-41-41c-6-6-17-6-23 8e-4l-41 41 23 23 7-7c2 31 8 62 27 87 19 27 51 44 98 50l28 28c6 6 17 6 23 0l28-28c45-6 76-23 95-49 18-25 25-55 27-87l7 7 23-23-41-41c-6-6-17-6-23-8e-4l-41 41 23 23 8-8c-2 26-7 48-18 63-12 17-33 29-73 33v-229h37v-43h-37v-33c17-9 28-27 28-48 0-30-25-55-55-55zm0 37c10 0 18 8 18 18 0 10-8 18-18 18-10-4e-6 -18-8-18-18 0-10 8-18 18-18z"/>
</svg>