<svg width="17" height="16" viewBox="0 0 17 16" fill="none" xmlns="http://www.w3.org/2000/svg">
<path d="M13.8333 8.5C13.7006 8.5 13.5735 8.55268 13.4797 8.64645C13.3859 8.74021 13.3333 8.86739 13.3333 9C13.3333 10.5431 12.4726 10.8525 10.952 11.2675C10.242 11.4612 9.4445 11.68 8.83325 12.1637V8H10.8333C10.9659 8 11.093 7.94732 11.1868 7.85355C11.2806 7.75978 11.3333 7.63261 11.3333 7.5C11.3333 7.36739 11.2806 7.24021 11.1868 7.14645C11.093 7.05268 10.9659 7 10.8333 7H8.83325V5.4375C9.30458 5.3158 9.71535 5.02638 9.98855 4.62349C10.2618 4.22061 10.3786 3.73191 10.3173 3.249C10.256 2.76609 10.0206 2.32213 9.65537 2.00034C9.29011 1.67854 8.82004 1.50101 8.33325 1.50101C7.84647 1.50101 7.37639 1.67854 7.01114 2.00034C6.64588 2.32213 6.41053 2.76609 6.34919 3.249C6.28786 3.73191 6.40474 4.22061 6.67795 4.62349C6.95116 5.02638 7.36192 5.3158 7.83325 5.4375V7H5.83325C5.70064 7 5.57347 7.05268 5.4797 7.14645C5.38593 7.24021 5.33325 7.36739 5.33325 7.5C5.33325 7.63261 5.38593 7.75978 5.4797 7.85355C5.57347 7.94732 5.70064 8 5.83325 8H7.83325V12.1637C7.222 11.68 6.4245 11.4612 5.7145 11.2675C4.19388 10.8525 3.33325 10.5431 3.33325 9C3.33325 8.86739 3.28057 8.74021 3.18681 8.64645C3.09304 8.55268 2.96586 8.5 2.83325 8.5C2.70064 8.5 2.57347 8.55268 2.4797 8.64645C2.38593 8.74021 2.33325 8.86739 2.33325 9C2.33325 11.3819 4.06263 11.8537 5.452 12.2325C6.97263 12.6475 7.83325 12.9569 7.83325 14.5C7.83325 14.6326 7.88593 14.7598 7.9797 14.8536C8.07347 14.9473 8.20064 15 8.33325 15C8.46586 15 8.59304 14.9473 8.68681 14.8536C8.78057 14.7598 8.83325 14.6326 8.83325 14.5C8.83325 12.9569 9.69388 12.6475 11.2145 12.2325C12.6039 11.8537 14.3333 11.3819 14.3333 9C14.3333 8.86739 14.2806 8.74021 14.1868 8.64645C14.093 8.55268 13.9659 8.5 13.8333 8.5ZM7.33325 3.5C7.33325 3.30222 7.3919 3.10888 7.50178 2.94443C7.61166 2.77998 7.76784 2.65181 7.95057 2.57612C8.13329 2.50043 8.33436 2.48063 8.52834 2.51921C8.72232 2.5578 8.90051 2.65304 9.04036 2.79289C9.18021 2.93274 9.27545 3.11093 9.31404 3.30491C9.35262 3.49889 9.33282 3.69996 9.25713 3.88268C9.18144 4.06541 9.05327 4.22159 8.88882 4.33147C8.72437 4.44135 8.53103 4.5 8.33325 4.5C8.06804 4.5 7.81368 4.39464 7.62615 4.20711C7.43861 4.01957 7.33325 3.76522 7.33325 3.5Z" fill="#1E70FE"/>
</svg>
