<svg viewBox="0 0 16 16" xmlns="http://www.w3.org/2000/svg">
<path d="M1.5 8C1.5 9.28558 1.88122 10.5423 2.59545 11.6112C3.30968 12.6801 4.32484 13.5132 5.51256 14.0052C6.70028 14.4972 8.00721 14.6259 9.26809 14.3751C10.529 14.1243 11.6872 13.5052 12.5962 12.5962C13.5052 11.6871 14.1243 10.529 14.3751 9.26808C14.6259 8.00721 14.4972 6.70027 14.0052 5.51256C13.5132 4.32484 12.6801 3.30967 11.6112 2.59544C10.5423 1.88122 9.28558 1.5 8 1.5C6.27665 1.50182 4.62441 2.18722 3.40582 3.40581C2.18722 4.6244 1.50182 6.27665 1.5 8ZM13.5 8C13.5 9.08779 13.1774 10.1512 12.5731 11.0556C11.9687 11.9601 11.1098 12.6651 10.1048 13.0813C9.09977 13.4976 7.9939 13.6065 6.927 13.3943C5.86011 13.1821 4.8801 12.6583 4.11091 11.8891C3.34172 11.1199 2.8179 10.1399 2.60568 9.07299C2.39346 8.0061 2.50238 6.90023 2.91866 5.89524C3.33494 4.89024 4.03989 4.03126 4.94436 3.42691C5.84883 2.82257 6.9122 2.5 8 2.5C9.45818 2.50165 10.8562 3.08165 11.8873 4.11274C12.9184 5.14383 13.4983 6.54181 13.5 8ZM7.64625 5.14625C7.69269 5.09976 7.74783 5.06288 7.80853 5.03772C7.86923 5.01256 7.93429 4.9996 8 4.9996C8.06571 4.9996 8.13077 5.01256 8.19147 5.03772C8.25217 5.06288 8.30731 5.09976 8.35375 5.14625L10.3538 7.14625C10.4476 7.24007 10.5003 7.36732 10.5003 7.5C10.5003 7.63268 10.4476 7.75993 10.3538 7.85375C10.2599 7.94757 10.1327 8.00028 10 8.00028C9.86732 8.00028 9.74007 7.94757 9.64625 7.85375L8.5 6.70687V10.5C8.5 10.6326 8.44732 10.7598 8.35355 10.8536C8.25979 10.9473 8.13261 11 8 11C7.86739 11 7.74021 10.9473 7.64645 10.8536C7.55268 10.7598 7.5 10.6326 7.5 10.5L7.5 6.70687L6.35375 7.85375C6.25993 7.94757 6.13268 8.00028 6 8.00028C5.86732 8.00028 5.74007 7.94757 5.64625 7.85375C5.55243 7.75993 5.49972 7.63268 5.49972 7.5C5.49972 7.36732 5.55243 7.24007 5.64625 7.14625L7.64625 5.14625Z"/>
</svg>
