<svg viewBox="0 0 17 16" xmlns="http://www.w3.org/2000/svg">
<path d="M13.8537 11.3535L11.8537 13.3535C11.7599 13.4474 11.6327 13.5001 11.5 13.5001C11.3673 13.5001 11.2401 13.4474 11.1462 13.3535C11.0524 13.2597 10.9997 13.1325 10.9997 12.9998C10.9997 12.8671 11.0524 12.7399 11.1462 12.646L12.2931 11.4998H3.5C3.36739 11.4998 3.24021 11.4471 3.14644 11.3533C3.05268 11.2596 3 11.1324 3 10.9998C3 10.8672 3.05268 10.74 3.14644 10.6462C3.24021 10.5525 3.36739 10.4998 3.5 10.4998H12.2931L11.1462 9.35354C11.0524 9.25972 10.9997 9.13247 10.9997 8.99979C10.9997 8.86711 11.0524 8.73986 11.1462 8.64604C11.2401 8.55222 11.3673 8.49951 11.5 8.49951C11.6327 8.49951 11.7599 8.55222 11.8537 8.64604L13.8537 10.646C13.9002 10.6925 13.9371 10.7476 13.9623 10.8083C13.9874 10.869 14.0004 10.9341 14.0004 10.9998C14.0004 11.0655 13.9874 11.1306 13.9623 11.1913C13.9371 11.252 13.9002 11.3071 13.8537 11.3535ZM5.14625 7.35354C5.24007 7.44736 5.36731 7.50007 5.5 7.50007C5.63268 7.50007 5.75993 7.44736 5.85375 7.35354C5.94757 7.25972 6.00027 7.13247 6.00027 6.99979C6.00027 6.86711 5.94757 6.73986 5.85375 6.64604L4.70687 5.49979H13.5C13.6326 5.49979 13.7598 5.44711 13.8535 5.35334C13.9473 5.25957 14 5.1324 14 4.99979C14 4.86718 13.9473 4.74 13.8535 4.64624C13.7598 4.55247 13.6326 4.49979 13.5 4.49979H4.70687L5.85375 3.35354C5.94757 3.25972 6.00027 3.13247 6.00027 2.99979C6.00027 2.86711 5.94757 2.73986 5.85375 2.64604C5.75993 2.55222 5.63268 2.49951 5.5 2.49951C5.36731 2.49951 5.24007 2.55222 5.14625 2.64604L3.14625 4.64604C3.09976 4.69248 3.06288 4.74762 3.03772 4.80832C3.01255 4.86902 2.9996 4.93408 2.9996 4.99979C2.9996 5.0655 3.01255 5.13056 3.03772 5.19126C3.06288 5.25196 3.09976 5.3071 3.14625 5.35354L5.14625 7.35354Z"/>
</svg>
