<svg viewBox="0 0 14 14" xmlns="http://www.w3.org/2000/svg">
<path d="M12.997 7.30977L11.247 9.05977C11.1649 9.14187 11.0536 9.18799 10.9375 9.18799C10.8214 9.18799 10.7101 9.14187 10.628 9.05977C10.5459 8.97768 10.4998 8.86634 10.4998 8.75024C10.4998 8.63415 10.5459 8.5228 10.628 8.44071L11.6315 7.43774H2.36852L3.37203 8.44071C3.45412 8.5228 3.50024 8.63415 3.50024 8.75024C3.50024 8.86634 3.45412 8.97768 3.37203 9.05977C3.28994 9.14187 3.1786 9.18799 3.0625 9.18799C2.9464 9.18799 2.83506 9.14187 2.75297 9.05977L1.00297 7.30977C0.962291 7.26914 0.930022 7.22089 0.908005 7.16778C0.885988 7.11467 0.874656 7.05774 0.874656 7.00024C0.874656 6.94275 0.885988 6.88582 0.908005 6.83271C0.930022 6.7796 0.962291 6.73134 1.00297 6.69071L2.75297 4.94071C2.83506 4.85862 2.9464 4.8125 3.0625 4.8125C3.1786 4.8125 3.28994 4.85862 3.37203 4.94071C3.45412 5.0228 3.50024 5.13415 3.50024 5.25024C3.50024 5.36634 3.45412 5.47768 3.37203 5.55977L2.36852 6.56274H11.6315L10.628 5.55977C10.5459 5.47768 10.4998 5.36634 10.4998 5.25024C10.4998 5.13415 10.5459 5.0228 10.628 4.94071C10.7101 4.85862 10.8214 4.8125 10.9375 4.8125C11.0536 4.8125 11.1649 4.85862 11.247 4.94071L12.997 6.69071C13.0377 6.73134 13.07 6.7796 13.092 6.83271C13.114 6.88582 13.1253 6.94275 13.1253 7.00024C13.1253 7.05774 13.114 7.11467 13.092 7.16778C13.07 7.22089 13.0377 7.26914 12.997 7.30977Z"/>
</svg>
