<svg width="17" height="16" viewBox="0 0 17 16" fill="none" xmlns="http://www.w3.org/2000/svg">
<path d="M15 8C15 6.71442 14.6188 5.45772 13.9046 4.3888C13.1903 3.31988 12.1752 2.48676 10.9874 1.99479C9.79972 1.50282 8.49279 1.37409 7.23191 1.6249C5.97104 1.8757 4.81285 2.49477 3.90381 3.40381C2.99476 4.31285 2.3757 5.47104 2.1249 6.73192C1.87409 7.99279 2.00281 9.29973 2.49478 10.4874C2.98675 11.6752 3.81987 12.6903 4.88879 13.4046C5.95771 14.1188 7.21442 14.5 8.5 14.5C10.2233 14.4982 11.8756 13.8128 13.0942 12.5942C14.3128 11.3756 14.9982 9.72335 15 8ZM3 8C3 6.91221 3.32257 5.84884 3.92692 4.94437C4.53127 4.0399 5.39025 3.33495 6.39524 2.91867C7.40023 2.50238 8.5061 2.39347 9.573 2.60568C10.6399 2.8179 11.6199 3.34173 12.3891 4.11092C13.1583 4.8801 13.6821 5.86011 13.8943 6.92701C14.1065 7.9939 13.9976 9.09977 13.5813 10.1048C13.1651 11.1098 12.4601 11.9687 11.5556 12.5731C10.6512 13.1774 9.5878 13.5 8.5 13.5C7.04182 13.4983 5.64383 12.9184 4.61274 11.8873C3.58165 10.8562 3.00165 9.45819 3 8ZM8.85375 10.8538C8.80731 10.9002 8.75217 10.9371 8.69147 10.9623C8.63077 10.9874 8.56571 11.0004 8.5 11.0004C8.43429 11.0004 8.36923 10.9874 8.30853 10.9623C8.24783 10.9371 8.19269 10.9002 8.14625 10.8538L6.14625 8.85375C6.05243 8.75993 5.99972 8.63268 5.99972 8.5C5.99972 8.36732 6.05243 8.24007 6.14625 8.14625C6.24007 8.05243 6.36732 7.99972 6.5 7.99972C6.63268 7.99972 6.75993 8.05243 6.85375 8.14625L8 9.29313V5.5C8 5.36739 8.05268 5.24022 8.14645 5.14645C8.24021 5.05268 8.36739 5 8.5 5C8.63261 5 8.75979 5.05268 8.85355 5.14645C8.94732 5.24022 9 5.36739 9 5.5V9.29313L10.1462 8.14625C10.2401 8.05243 10.3673 7.99972 10.5 7.99972C10.6327 7.99972 10.7599 8.05243 10.8538 8.14625C10.9476 8.24007 11.0003 8.36732 11.0003 8.5C11.0003 8.63268 10.9476 8.75993 10.8538 8.85375L8.85375 10.8538Z" fill="#1E70FE"/>
</svg>
