<svg viewBox="0 0 512 512.0131" xmlns="http://www.w3.org/2000/svg"><path d="M256 320.01q25 0 44.5-19.5t19.5-44.5q0-25-19.5-44.5t-44.5-19.5q-25 0-44.5 19.5t-19.5 44.5q0 25 19.5 44.5t44.5 19.5zm0-277q87 0 150 63t63 150v31q0 31-21.5 53.5t-52.5 22.5q-39 0-63-32-32 32-75.5 32t-75.5-32q-32-32-32-75t32-75q32-32 75-32t75 32q32 32 32 75v31q0 13 9.5 23t22.5 10q13 0 22.5-10t9.5-23v-31q0-70-50.5-120.5T256 85.01q-70 0-120.5 50.5T85 256.01q0 70 50.5 120.5t120.5 50.5h107v42H256q-87 0-150-63t-63-150q0-87 63-150t150-63z"/></svg>