<svg viewBox="0 0 17 16" xmlns="http://www.w3.org/2000/svg">
<path d="M15.8538 2.64604L13.8538 0.64604C13.7599 0.552219 13.6327 0.499512 13.5 0.499512C13.3673 0.499512 13.2401 0.552219 13.1463 0.64604C13.0524 0.73986 12.9997 0.867108 12.9997 0.99979C12.9997 1.13247 13.0524 1.25972 13.1463 1.35354L13.2388 1.44541L9.79063 4.03166L7.40188 4.50979C7.30516 4.52917 7.21626 4.57655 7.14625 4.64604L1.9375 9.85354C1.65622 10.1348 1.4982 10.5164 1.4982 10.9142C1.4982 11.312 1.65622 11.6935 1.9375 11.9748L4.525 14.5623C4.80631 14.8436 5.18782 15.0016 5.58563 15.0016C5.98344 15.0016 6.36495 14.8436 6.64625 14.5623L11.8538 9.35542C11.9234 9.28552 11.9708 9.19658 11.99 9.09979L12.4681 6.71104L15.0544 3.26291L15.1463 3.35541C15.1927 3.40187 15.2479 3.43872 15.3086 3.46386C15.3693 3.489 15.4343 3.50194 15.5 3.50194C15.5657 3.50194 15.6308 3.489 15.6915 3.46386C15.7521 3.43872 15.8073 3.40187 15.8538 3.35541C15.9002 3.30896 15.9371 3.25381 15.9622 3.19311C15.9873 3.13242 16.0003 3.06736 16.0003 3.00166C16.0003 2.93597 15.9873 2.87091 15.9622 2.81022C15.9371 2.74952 15.9002 2.69437 15.8538 2.64791V2.64604ZM6.5 6.70666L9.79313 9.99979L7 12.7929L3.70688 9.49979L6.5 6.70666ZM5.58563 13.9998C5.52002 14 5.45503 13.9871 5.39442 13.962C5.33381 13.9369 5.27877 13.9001 5.2325 13.8535L2.64625 11.2673C2.55256 11.1735 2.49992 11.0464 2.49992 10.9139C2.49992 10.7813 2.55256 10.6542 2.64625 10.5604L3 10.2067L6.29313 13.4998L5.9375 13.8535C5.84412 13.9468 5.71763 13.9994 5.58563 13.9998ZM11.6 6.19979C11.5552 6.25944 11.5244 6.32845 11.51 6.40166L11.0394 8.75354L10.5 9.29292L7.20688 5.99979L7.74625 5.46041L10.0981 4.98979C10.1713 4.97539 10.2404 4.94462 10.3 4.89979L13.9531 2.15979L14.34 2.54666L11.6 6.19979Z" />
</svg>
