<svg viewBox="0 0 512 512.0131" xmlns="http://www.w3.org/2000/svg"><path d="M213 448.01h86q0 18-12.5 30.5t-30.5 12.5q-18 0-30.5-12.5t-12.5-30.5zm235-43v22H64v-22l43-42v-128q0-50 29.5-89.5t76.5-53.5v-7q0-17 12.5-29.5t30.5-12.5q18 0 30.5 12.5t12.5 29.5v7q47 14 76.5 53.5t29.5 89.5v128l43 42zm-85-170q0-29-14.5-53.5t-39-39q-24.5-14.5-53.5-14.5t-53.5 14.5q-24.5 14.5-39 39t-14.5 53.5v149h214v-149zm58-167l-30 30q27 27 42 62.5t15 74.5h43q0-47-18-90.5t-52-76.5zm-400 167h43q0-39 15-74.5t42-62.5l-30-30q-34 33-52 76.5t-18 90.5z"/></svg>