<svg viewBox="0 0 24 24" xmlns="http://www.w3.org/2000/svg">
<path d="M13.0004 3V4H11.0004V3H13.0004ZM12.0004 10.11L17.3804 11.88L19.7704 12.66L18.6504 16.63C18.1104 16.33 17.7104 15.92 17.5104 15.69L16.0004 13.96L14.4904 15.68C14.1504 16.08 13.2104 17 12.0004 17C10.7904 17 9.85038 16.08 9.51038 15.68L8.00038 13.96L6.49038 15.68C6.29038 15.91 5.89038 16.31 5.35038 16.61L4.22038 12.65L6.62038 11.86L12.0004 10.11ZM15.0004 1H9.00038V4H6.00038C4.90038 4 4.00038 4.9 4.00038 6V10.62L2.71038 11.04C2.45038 11.12 2.23038 11.3 2.11038 11.54C1.99038 11.78 1.96038 12.06 2.05038 12.32L3.95038 19H4.00038C5.60038 19 7.02038 18.12 8.00038 17C8.98038 18.12 10.4004 19 12.0004 19C13.6004 19 15.0204 18.12 16.0004 17C16.9804 18.12 18.4004 19 20.0004 19H20.0504L21.9404 12.32C22.0204 12.06 22.0004 11.78 21.8804 11.54C21.7604 11.3 21.5404 11.12 21.2804 11.04L20.0004 10.62V6C20.0004 4.9 19.1004 4 18.0004 4H15.0004V1ZM6.00038 9.97V6H18.0004V9.97L12.0004 8L6.00038 9.97ZM16.0004 19.68C14.7804 20.53 13.3904 20.96 12.0004 20.96C10.6104 20.96 9.22038 20.53 8.00038 19.68C6.78038 20.53 5.39038 21 4.00038 21H2.00038V23H4.00038C5.38038 23 6.74038 22.65 8.00038 22.01C9.26038 22.65 10.6304 22.98 12.0004 22.98C13.3704 22.98 14.7404 22.66 16.0004 22.01C17.2604 22.66 18.6204 23 20.0004 23H22.0004V21H20.0004C18.6104 21 17.2204 20.53 16.0004 19.68Z"/>
</svg>
