<svg width="16" height="17" viewBox="0 0 16 17" fill="none" xmlns="http://www.w3.org/2000/svg">
<path d="M14.25 1.5H12.375V0.875C12.375 0.70924 12.3092 0.550268 12.1919 0.433058C12.0747 0.315848 11.9158 0.25 11.75 0.25C11.5842 0.25 11.4253 0.315848 11.3081 0.433058C11.1908 0.550268 11.125 0.70924 11.125 0.875V1.5H4.875V0.875C4.875 0.70924 4.80915 0.550268 4.69194 0.433058C4.57473 0.315848 4.41576 0.25 4.25 0.25C4.08424 0.25 3.92527 0.315848 3.80806 0.433058C3.69085 0.550268 3.625 0.70924 3.625 0.875V1.5H1.75C1.41848 1.5 1.10054 1.6317 0.866116 1.86612C0.631696 2.10054 0.5 2.41848 0.5 2.75V15.25C0.5 15.5815 0.631696 15.8995 0.866116 16.1339C1.10054 16.3683 1.41848 16.5 1.75 16.5H14.25C14.5815 16.5 14.8995 16.3683 15.1339 16.1339C15.3683 15.8995 15.5 15.5815 15.5 15.25V2.75C15.5 2.41848 15.3683 2.10054 15.1339 1.86612C14.8995 1.6317 14.5815 1.5 14.25 1.5ZM3.625 2.75V3.375C3.625 3.54076 3.69085 3.69973 3.80806 3.81694C3.92527 3.93415 4.08424 4 4.25 4C4.41576 4 4.57473 3.93415 4.69194 3.81694C4.80915 3.69973 4.875 3.54076 4.875 3.375V2.75H11.125V3.375C11.125 3.54076 11.1908 3.69973 11.3081 3.81694C11.4253 3.93415 11.5842 4 11.75 4C11.9158 4 12.0747 3.93415 12.1919 3.81694C12.3092 3.69973 12.375 3.54076 12.375 3.375V2.75H14.25V5.25H1.75V2.75H3.625ZM14.25 15.25H1.75V6.5H14.25V15.25ZM8.9375 9.3125C8.9375 9.49792 8.88252 9.67918 8.7795 9.83335C8.67649 9.98752 8.53007 10.1077 8.35877 10.1786C8.18746 10.2496 7.99896 10.2682 7.8171 10.232C7.63525 10.1958 7.4682 10.1065 7.33709 9.97541C7.20598 9.8443 7.11669 9.67725 7.08051 9.4954C7.04434 9.31354 7.06291 9.12504 7.13386 8.95373C7.20482 8.78243 7.32498 8.63601 7.47915 8.533C7.63332 8.42998 7.81458 8.375 8 8.375C8.24864 8.375 8.4871 8.47377 8.66291 8.64959C8.83873 8.8254 8.9375 9.06386 8.9375 9.3125ZM12.375 9.3125C12.375 9.49792 12.32 9.67918 12.217 9.83335C12.114 9.98752 11.9676 10.1077 11.7963 10.1786C11.625 10.2496 11.4365 10.2682 11.2546 10.232C11.0727 10.1958 10.9057 10.1065 10.7746 9.97541C10.6435 9.8443 10.5542 9.67725 10.518 9.4954C10.4818 9.31354 10.5004 9.12504 10.5714 8.95373C10.6423 8.78243 10.7625 8.63601 10.9167 8.533C11.0708 8.42998 11.2521 8.375 11.4375 8.375C11.6861 8.375 11.9246 8.47377 12.1004 8.64959C12.2762 8.8254 12.375 9.06386 12.375 9.3125ZM5.5 12.4375C5.5 12.6229 5.44502 12.8042 5.342 12.9583C5.23899 13.1125 5.09257 13.2327 4.92127 13.3036C4.74996 13.3746 4.56146 13.3932 4.3796 13.357C4.19775 13.3208 4.0307 13.2315 3.89959 13.1004C3.76848 12.9693 3.67919 12.8023 3.64301 12.6204C3.60684 12.4385 3.62541 12.25 3.69636 12.0787C3.76732 11.9074 3.88748 11.761 4.04165 11.658C4.19582 11.555 4.37708 11.5 4.5625 11.5C4.81114 11.5 5.0496 11.5988 5.22541 11.7746C5.40123 11.9504 5.5 12.1889 5.5 12.4375ZM8.9375 12.4375C8.9375 12.6229 8.88252 12.8042 8.7795 12.9583C8.67649 13.1125 8.53007 13.2327 8.35877 13.3036C8.18746 13.3746 7.99896 13.3932 7.8171 13.357C7.63525 13.3208 7.4682 13.2315 7.33709 13.1004C7.20598 12.9693 7.11669 12.8023 7.08051 12.6204C7.04434 12.4385 7.06291 12.25 7.13386 12.0787C7.20482 11.9074 7.32498 11.761 7.47915 11.658C7.63332 11.555 7.81458 11.5 8 11.5C8.24864 11.5 8.4871 11.5988 8.66291 11.7746C8.83873 11.9504 8.9375 12.1889 8.9375 12.4375ZM12.375 12.4375C12.375 12.6229 12.32 12.8042 12.217 12.9583C12.114 13.1125 11.9676 13.2327 11.7963 13.3036C11.625 13.3746 11.4365 13.3932 11.2546 13.357C11.0727 13.3208 10.9057 13.2315 10.7746 13.1004C10.6435 12.9693 10.5542 12.8023 10.518 12.6204C10.4818 12.4385 10.5004 12.25 10.5714 12.0787C10.6423 11.9074 10.7625 11.761 10.9167 11.658C11.0708 11.555 11.2521 11.5 11.4375 11.5C11.6861 11.5 11.9246 11.5988 12.1004 11.7746C12.2762 11.9504 12.375 12.1889 12.375 12.4375Z" fill="#AFACAC"/>
</svg>
