<svg viewBox="0 0 512 512.0131" xmlns="http://www.w3.org/2000/svg"><path d="M427 107.01h-68l-39-43H192l-39 43H85q-17 0-29.5 12.5T43 149.01v256q0 18 12.5 30.5t29.5 12.5h342q17 0 29.5-12.5t12.5-30.5v-256q0-17-12.5-29.5t-29.5-12.5zm0 298H85v-256h87l39-42h90l40 42h86v256zm-320-149h44q6-28 25-49.5t46-30.5q27-9 55-3 22 4 43 19l-31 31q-15-10-33-10-20 0-36.5 12t-23.5 31h39l-64 64-64-64zm254 43q-6 28-25 49t-46 30.5q-27 9.5-55 3.5-23-5-43-19l31-31q15 9 33 9 20 0 37-11.5t23-30.5h-39l64-64 64 64h-44z"/></svg>