<svg width="37" height="36" viewBox="0 0 37 36" fill="none" xmlns="http://www.w3.org/2000/svg">
<path d="M24.5 19.125C24.5 19.4234 24.3815 19.7095 24.1705 19.9205C23.9595 20.1315 23.6734 20.25 23.375 20.25H20V23.625C20 23.9234 19.8815 24.2095 19.6705 24.4205C19.4595 24.6315 19.1734 24.75 18.875 24.75C18.5766 24.75 18.2905 24.6315 18.0795 24.4205C17.8685 24.2095 17.75 23.9234 17.75 23.625V20.25H14.375C14.0766 20.25 13.7905 20.1315 13.5795 19.9205C13.3685 19.7095 13.25 19.4234 13.25 19.125C13.25 18.8266 13.3685 18.5405 13.5795 18.3295C13.7905 18.1185 14.0766 18 14.375 18H17.75V14.625C17.75 14.3266 17.8685 14.0405 18.0795 13.8295C18.2905 13.6185 18.5766 13.5 18.875 13.5C19.1734 13.5 19.4595 13.6185 19.6705 13.8295C19.8815 14.0405 20 14.3266 20 14.625V18H23.375C23.6734 18 23.9595 18.1185 24.1705 18.3295C24.3815 18.5405 24.5 18.8266 24.5 19.125ZM33.5 11.25V27C33.5 27.8951 33.1444 28.7536 32.5115 29.3865C31.8786 30.0194 31.0201 30.375 30.125 30.375H7.625C6.72989 30.375 5.87145 30.0194 5.23851 29.3865C4.60558 28.7536 4.25 27.8951 4.25 27V11.25C4.25 10.3549 4.60558 9.49645 5.23851 8.86351C5.87145 8.23058 6.72989 7.875 7.625 7.875H11.5231L13.1094 5.50125C13.3145 5.19382 13.5922 4.94165 13.9179 4.76702C14.2436 4.59239 14.6073 4.50068 14.9769 4.5H22.7731C23.1427 4.50068 23.5064 4.59239 23.8321 4.76702C24.1578 4.94165 24.4355 5.19382 24.6406 5.50125L26.2269 7.875H30.125C31.0201 7.875 31.8786 8.23058 32.5115 8.86351C33.1444 9.49645 33.5 10.3549 33.5 11.25ZM31.25 11.25C31.25 10.9516 31.1315 10.6655 30.9205 10.4545C30.7095 10.2435 30.4234 10.125 30.125 10.125H25.625C25.4397 10.1251 25.2573 10.0795 25.0939 9.99215C24.9305 9.90482 24.7913 9.77849 24.6884 9.62438L22.7731 6.75H14.9769L13.0616 9.62438C12.9587 9.77849 12.8195 9.90482 12.6561 9.99215C12.4927 10.0795 12.3103 10.1251 12.125 10.125H7.625C7.32663 10.125 7.04048 10.2435 6.82951 10.4545C6.61853 10.6655 6.5 10.9516 6.5 11.25V27C6.5 27.2984 6.61853 27.5845 6.82951 27.7955C7.04048 28.0065 7.32663 28.125 7.625 28.125H30.125C30.4234 28.125 30.7095 28.0065 30.9205 27.7955C31.1315 27.5845 31.25 27.2984 31.25 27V11.25Z" fill="black"/>
</svg>
