<svg viewBox="0 0 512 512.0131" xmlns="http://www.w3.org/2000/svg"><path d="M149 363.01l69-145 145-69-69 145-145 69zm107-126q-8 0-13.5 5.5t-5.5 13.5q0 8 5.5 13.5t13.5 5.5q8 0 13.5-5.5t5.5-13.5q0-8-5.5-13.5t-13.5-5.5zm0-194q42 0 81.5 16t69.5 46q30 30 46 69.5t16 81.5q0 42-16 81.5t-46 69.5q-30 30-69.5 46t-81.5 16q-42 0-81.5-16t-69.5-46q-30-30-46-69.5t-16-81.5q0-42 16-81.5t46-69.5q30-30 69.5-46t81.5-16zm0 42q-46 0-85.5 23t-62.5 62.5q-23 39.5-23 85.5t23 85.5q23 39.5 62.5 62.5t85.5 23q46 0 85.5-23t62.5-62.5q23-39.5 23-85.5t-23-85.5q-23-39.5-62.5-62.5t-85.5-23z"/></svg>