<svg viewBox="0 0 16 16" xmlns="http://www.w3.org/2000/svg">
<g clip-path="url(#clip0_2223_3230)">
<path d="M15.793 6.40845C15.5905 6.11957 15.2724 5.94266 14.9202 5.92313C14.3854 5.89344 13.8964 6.24473 13.7565 6.75833C13.6891 7.0057 13.5729 7.26292 13.3968 7.55215C13.1246 7.2913 12.9852 6.96989 12.9599 6.54817C12.9415 6.24104 12.8046 5.95944 12.5744 5.75529C12.3441 5.55103 12.0476 5.44869 11.741 5.46735C11.4339 5.48575 11.1523 5.62269 10.9481 5.85288C10.7439 6.0831 10.6416 6.37901 10.6601 6.68611C10.7186 7.66058 11.0928 8.50887 11.7481 9.16219C11.5305 9.28804 11.2977 9.40194 11.0515 9.50316C10.9409 9.09428 10.8089 8.70172 10.6803 8.31912C10.3934 7.46571 10.1224 6.65961 10.0951 5.78163C10.0859 5.48397 10.092 5.12937 10.1131 4.72478C11.0821 4.6194 12.309 4.30933 13.1552 3.46855C13.3735 3.25164 13.4942 2.96279 13.4952 2.65513C13.4962 2.34747 13.3772 2.05785 13.1604 1.83966C12.9435 1.62137 12.6546 1.50065 12.3468 1.49972C12.3456 1.49972 12.3444 1.49972 12.3432 1.49972C12.0369 1.49972 11.7486 1.61853 11.5313 1.83453C11.2965 2.06778 10.8803 2.24947 10.3381 2.35919C10.4135 1.76712 10.4782 1.35309 10.4815 1.33228C10.5809 0.705052 10.1515 0.113797 9.52417 0.0143273C8.89659 -0.0851735 8.30545 0.344237 8.20594 0.971492C8.18662 1.09315 7.73394 3.97249 7.79232 5.8531C7.8302 7.07117 8.18419 8.12421 8.4966 9.05356C8.88978 10.223 9.19353 11.1267 8.89853 12.1392C8.5332 11.2949 8.0807 10.4929 7.54842 9.74707C7.25125 9.33072 6.93943 8.91219 6.60833 8.46778C5.93849 7.56883 5.24794 6.64204 4.69918 5.74879C5.47856 5.20775 6.3457 4.14905 6.58833 2.08622C6.66249 1.45543 6.20959 0.881898 5.57873 0.807741C4.94752 0.733553 4.37429 1.18653 4.30013 1.81716C4.19899 2.67735 3.9569 3.20148 3.72237 3.51748C3.70812 3.42945 3.69911 3.34511 3.69543 3.26483C3.68117 2.95695 3.54794 2.67319 3.32022 2.46588C3.09285 2.25891 2.79887 2.15319 2.49143 2.16738C1.85694 2.19669 1.3646 2.7367 1.39385 3.37114C1.47233 5.06925 2.57728 6.83995 3.79513 8.53272C3.14717 8.5005 2.37654 8.36662 1.97311 7.9493C1.75865 7.72743 1.47061 7.60271 1.16198 7.59811C0.854565 7.59305 0.561684 7.70961 0.340655 7.92505C0.123909 8.13634 0.00292493 8.42234 4.95674e-05 8.7304C-0.00285705 9.04525 0.12219 9.35404 0.343218 9.57763C1.14232 10.386 2.35435 10.8118 3.94571 10.8433C4.5331 10.8548 5.06204 10.8091 5.43956 10.7616C5.52397 10.8774 5.60104 10.9842 5.67302 11.0851C7.08195 13.0593 7.40137 14.9989 7.40402 15.0156C7.46825 15.4529 7.78289 15.8194 8.20563 15.9493C8.31539 15.9829 8.42909 16 8.54364 16C8.86584 16 9.17547 15.8637 9.39318 15.6263C9.68832 15.3042 9.9521 14.978 10.1794 14.6539C10.4232 14.7081 10.7352 14.7609 11.076 14.7784C11.157 14.7826 11.2381 14.7846 11.3169 14.7846C12.7323 14.7846 13.482 14.121 13.8616 13.5643C14.0349 13.3101 14.0989 13.0036 14.0417 12.7013C13.9845 12.399 13.813 12.137 13.5588 11.9637C13.3047 11.7904 12.9981 11.7264 12.6958 11.7836C12.3934 11.8408 12.1314 12.0122 11.958 12.2665C11.8477 12.4283 11.5736 12.5006 11.1867 12.4764C11.2327 12.2753 11.2666 12.0722 11.2884 11.8683C13.5627 11.1299 14.7481 9.78419 15.3452 8.7704C15.6033 8.33221 15.8071 7.86784 15.9511 7.39021C16.0524 7.0542 15.9948 6.69632 15.793 6.40845ZM15.3405 7.20636C15.2112 7.6353 15.0279 8.05271 14.7956 8.44703C14.2384 9.39304 13.1098 10.6599 10.8973 11.3227C10.7695 11.361 10.6791 11.4747 10.6706 11.6079C10.6484 11.9603 10.5841 12.3125 10.4796 12.6546C10.4529 12.7419 10.465 12.8365 10.5128 12.9143C10.5605 12.9922 10.6393 13.0458 10.7292 13.0616C11.581 13.2115 12.1879 13.0607 12.4846 12.6256C12.562 12.5121 12.679 12.4355 12.8141 12.4099C12.949 12.3844 13.0859 12.413 13.1995 12.4904C13.313 12.5678 13.3896 12.6847 13.4151 12.8198C13.4407 12.9547 13.4121 13.0916 13.3347 13.2051C13.0417 13.6349 12.4537 14.1471 11.3167 14.1471C11.2488 14.1471 11.1787 14.1453 11.1085 14.1417C10.7081 14.1212 10.3508 14.0446 10.1216 13.9839C9.98917 13.9489 9.8494 14.0023 9.77404 14.1165C9.53845 14.4734 9.2521 14.8365 8.92297 15.1957C8.82583 15.3017 8.68753 15.3626 8.54361 15.3626C8.49254 15.3626 8.44175 15.3549 8.39274 15.3399C8.20397 15.282 8.06345 15.1183 8.03448 14.9211C8.03132 14.9004 7.70087 12.8291 6.19193 10.7148C6.08779 10.5689 5.97325 10.4108 5.84183 10.2318C5.78122 10.1492 5.6854 10.1016 5.58485 10.1016C5.5696 10.1016 5.55429 10.1027 5.53885 10.1049C5.18471 10.1563 4.60851 10.2186 3.95815 10.2059C2.53856 10.1778 1.47483 9.81563 0.796526 9.12944C0.694044 9.02578 0.636099 8.8825 0.637475 8.73625C0.638756 8.59928 0.691356 8.47331 0.785587 8.38143C0.884318 8.28521 1.01537 8.23299 1.15238 8.2354C1.29018 8.23743 1.41886 8.29312 1.51462 8.39221C2.19574 9.09672 3.47859 9.20616 4.4349 9.17375C4.55307 9.16978 4.65933 9.10066 4.7109 8.99431C4.76253 8.88791 4.751 8.76175 4.68099 8.66647C3.43968 6.97742 2.10879 5.03368 2.03059 3.34161C2.01753 3.05826 2.23743 2.8171 2.52112 2.80398C2.65792 2.79763 2.78953 2.8447 2.89089 2.93701C2.99262 3.02964 3.05209 3.15642 3.05847 3.29404C3.07157 3.57823 3.13467 3.89389 3.2459 4.2323C3.27734 4.32787 3.35201 4.40299 3.44743 4.43496C3.54288 4.46696 3.64767 4.45202 3.7304 4.39468C4.18158 4.08174 4.75653 3.39345 4.93318 1.89144C4.96631 1.60978 5.2224 1.40759 5.50422 1.44062C5.78591 1.47375 5.98816 1.72987 5.95506 2.01156C5.7144 4.05777 4.81788 4.96612 4.10823 5.36781C4.03394 5.40988 3.97962 5.47997 3.95746 5.56238C3.93524 5.64482 3.94702 5.73263 3.99018 5.80629C4.57851 6.81048 5.35045 7.84649 6.09795 8.84966C6.42606 9.29007 6.73603 9.70607 7.02938 10.1171C7.68012 11.0289 8.20541 12.0292 8.59068 13.09C8.63352 13.208 8.74157 13.2899 8.86674 13.2991C8.99123 13.3085 9.11087 13.2434 9.17062 13.133C10.0158 11.5722 9.59177 10.3108 9.10068 8.84997C8.80239 7.96271 8.46432 6.95711 8.42937 5.8331C8.3728 4.01199 8.81649 1.19037 8.83543 1.07118C8.87987 0.791053 9.14378 0.599239 9.42409 0.643708C9.70422 0.688146 9.896 0.952179 9.85146 1.23306C9.84734 1.25924 9.7497 1.88409 9.65328 2.70382C9.64187 2.80107 9.67572 2.89813 9.7452 2.96717C9.81464 3.0362 9.91194 3.06948 10.0091 3.05735C10.6323 2.98001 11.4802 2.78348 11.9804 2.28647C12.0775 2.19003 12.2062 2.13697 12.3431 2.13697C12.3436 2.13697 12.3442 2.13697 12.3447 2.13697C12.4821 2.13741 12.6111 2.19132 12.708 2.28882C12.8048 2.38625 12.8579 2.5156 12.8575 2.65298C12.857 2.79038 12.8031 2.91938 12.7056 3.01623C11.8723 3.84424 10.5194 4.05968 9.78705 4.11443C9.62862 4.12624 9.5031 4.25299 9.49276 4.41155C9.4576 4.95078 9.44582 5.41834 9.45769 5.80125C9.48792 6.77333 9.77345 7.62271 10.0759 8.52237C10.2362 8.99913 10.4019 9.4921 10.5186 9.99951C10.539 10.0879 10.5959 10.1633 10.6753 10.2071C10.7547 10.2509 10.8489 10.2588 10.9345 10.229C11.4999 10.0314 12.012 9.77507 12.4567 9.46729C12.5397 9.40985 12.5906 9.31657 12.5939 9.21572C12.5972 9.11488 12.5526 9.01844 12.4736 8.95566L12.4655 8.94925C12.4586 8.94378 12.4517 8.93828 12.4448 8.93272C11.7492 8.36728 11.3521 7.57718 11.2963 6.64786C11.2881 6.5107 11.3337 6.37857 11.4249 6.27576C11.516 6.17298 11.6418 6.11179 11.7791 6.10357C11.9156 6.09523 12.0483 6.14094 12.1511 6.2321C12.2539 6.32329 12.315 6.44904 12.3233 6.58623C12.3605 7.20674 12.6038 7.71424 13.0462 8.09465C13.125 8.16237 13.2109 8.22631 13.3014 8.28471C13.4461 8.378 13.6388 8.33953 13.7366 8.19784C14.0615 7.72696 14.2631 7.32277 14.3713 6.9258C14.4327 6.70045 14.6482 6.54639 14.8846 6.55954C15.0404 6.56817 15.1811 6.64642 15.2707 6.77423C15.3596 6.90111 15.385 7.05858 15.3405 7.20636Z"/>
<path d="M5.74131 8.80496L4.97471 7.671C4.8761 7.52514 4.67795 7.48692 4.53209 7.58546C4.38623 7.68407 4.34791 7.88222 4.44655 8.02808L5.21315 9.16204C5.27478 9.25314 5.3752 9.3023 5.47749 9.3023C5.53894 9.3023 5.60101 9.28455 5.65573 9.24761C5.80163 9.14897 5.83995 8.95079 5.74131 8.80496Z"/>
<path d="M4.36656 6.77181L4.14128 6.43858C4.04267 6.29272 3.84452 6.2545 3.69866 6.35304C3.5528 6.45165 3.51448 6.6498 3.61312 6.79566L3.83839 7.12889C3.9 7.21999 4.00045 7.26916 4.10274 7.26916C4.16419 7.26916 4.22626 7.25143 4.28098 7.21446C4.42688 7.11582 4.46519 6.91764 4.36656 6.77181Z"/>
</g>
<defs>
<clipPath id="clip0_2223_3230">
<rect />
</clipPath>
</defs>
</svg>
