<svg viewBox="0 0 15 14" xmlns="http://www.w3.org/2000/svg">
<g clip-path="url(#clip0_2223_3176)">
<path d="M7.91665 1.75016V2.3335H6.74999V1.75016H7.91665ZM7.33332 5.89766L10.4717 6.93016L11.8658 7.38516L11.2125 9.701C10.8975 9.526 10.6642 9.28683 10.5475 9.15266L9.66665 8.1435L8.78582 9.14683C8.58749 9.38016 8.03915 9.91683 7.33332 9.91683C6.62749 9.91683 6.07915 9.38016 5.88082 9.14683L4.99999 8.1435L4.11915 9.14683C4.00249 9.281 3.76915 9.51433 3.45415 9.68933L2.79499 7.37933L4.19499 6.9185L7.33332 5.89766ZM9.08332 0.583496L5.58332 0.583496V2.3335H3.83332C3.19165 2.3335 2.66665 2.8585 2.66665 3.50016L2.66665 6.19516L1.91415 6.44016C1.76249 6.48683 1.63415 6.59183 1.56415 6.73183C1.49415 6.87183 1.47665 7.03516 1.52915 7.18683L2.63749 11.0835H2.66665C3.59999 11.0835 4.42832 10.5702 4.99999 9.91683C5.57165 10.5702 6.39999 11.0835 7.33332 11.0835C8.26665 11.0835 9.09499 10.5702 9.66665 9.91683C10.2383 10.5702 11.0667 11.0835 12 11.0835H12.0292L13.1317 7.18683C13.1783 7.03516 13.1667 6.87183 13.0967 6.73183C13.0267 6.59183 12.8983 6.48683 12.7467 6.44016L12 6.19516V3.50016C12 2.8585 11.475 2.3335 10.8333 2.3335L9.08332 2.3335V0.583496ZM3.83332 5.816L3.83332 3.50016L10.8333 3.50016V5.816L7.33332 4.66683L3.83332 5.816ZM9.66665 11.4802C8.95499 11.976 8.14415 12.2268 7.33332 12.2268C6.52249 12.2268 5.71165 11.976 4.99999 11.4802C4.28832 11.976 3.47749 12.2502 2.66665 12.2502H1.49999V13.4168H2.66665C3.47165 13.4168 4.26499 13.2127 4.99999 12.8393C5.73499 13.2127 6.53415 13.4052 7.33332 13.4052C8.13249 13.4052 8.93165 13.2185 9.66665 12.8393C10.4017 13.2185 11.195 13.4168 12 13.4168H13.1667V12.2502H12C11.1892 12.2502 10.3783 11.976 9.66665 11.4802Z"/>
</g>
<defs>
<clipPath id="clip0_2223_3176">
<rect transform="translate(0.333313)"/>
</clipPath>
</defs>
</svg>
