<svg viewBox="0 0 2048 2048" xmlns="http://www.w3.org/2000/svg">
  <path d="M628.568 542.612h790.864c23.34 0 44.537 9.527 59.883 24.872 15.345 15.345 24.872 36.542 24.872 59.882v793.27c0 23.338-9.527 44.536-24.872 59.88-15.346 15.345-36.543 24.872-59.883 24.872H628.568c-23.34 0-44.537-9.527-59.883-24.872-15.345-15.345-24.872-36.542-24.872-59.88v-793.27c0-23.34 9.527-44.537 24.872-59.882 15.346-15.345 36.543-24.872 59.883-24.872zm790.864 64.002H628.568c-5.674 0-10.857 2.344-14.633 6.12-3.775 3.775-6.12 8.958-6.12 14.632v793.27c0 5.672 2.345 10.855 6.12 14.63 3.776 3.776 8.959 6.12 14.633 6.12h790.864c5.674 0 10.857-2.344 14.633-6.12 3.775-3.775 6.12-8.958 6.12-14.63v-793.27c0-5.674-2.345-10.857-6.12-14.632-3.776-3.776-8.959-6.12-14.633-6.12z" />
  
  <path d="M1485.49 915.172h22.402c17.673 0 32 14.328 32 32v153.655c0 17.673-14.327 32-32 32h-22.402c-17.673 0-32-14.327-32-32V947.173c0-17.673 14.327-32.001 32-32.001z" />
  
  <path d="M540.113 915.172h22.402c17.673 0 32 14.328 32 32v153.655c0 17.673-14.327 32-32 32h-22.402c-17.673 0-32-14.327-32-32V947.173c0-17.673 14.327-32.001 32-32.001z" />
  
  <path d="M640.77 543.611c-17.12 4.28-27.53 21.63-23.25 38.75 4.28 17.12 21.63 27.531 38.75 23.25 85.39-21.332 94.983-92.133 104.722-164.024 8.433-62.258 17.031-125.705 110.213-121.421l-.005.093c.499.024.995.033 1.487.034v.002h302.625c1.223 0 2.43-.073 3.618-.206 91.165-3.214 99.71 59.721 108.077 121.498 9.74 71.89 19.333 142.691 104.721 164.025 17.12 4.28 34.47-6.13 38.751-23.25 4.28-17.12-6.13-34.47-23.25-38.75-43.47-10.861-50.17-60.313-56.971-110.524-12.253-90.449-24.765-182.597-173.668-176.767-.424-.016-.85-.027-1.278-.027H872.688v.074c-150.118-6.412-162.658 86.012-174.946 176.72-6.802 50.212-13.503 99.663-56.972 110.523z" />
  
  <path d="M656.274 1442.39c-17.12-4.28-34.47 6.13-38.75 23.25-4.281 17.12 6.13 34.47 23.25 38.75 43.467 10.861 50.169 60.312 56.97 110.523 12.288 90.709 24.829 183.134 174.947 176.72v.075h302.623c.428 0 .854-.01 1.278-.027 148.904 5.83 161.415-86.319 173.668-176.767 6.802-50.211 13.502-99.663 56.971-110.523 17.12-4.28 27.53-21.63 23.25-38.75-4.28-17.12-21.63-27.531-38.75-23.25-85.39 21.332-94.982 92.134-104.721 164.024-8.369 61.777-16.913 124.712-108.077 121.498a32.403 32.403 0 0 0-3.62-.205H872.69c-.492.002-.988.012-1.487.035l.005.093c-93.182 4.284-101.782-59.163-110.215-121.422-9.738-71.89-19.332-142.69-104.72-164.023z" />
  
  <path d="M683.188 1268.19c-6.523 11.493-2.493 26.101 9 32.624 11.493 6.524 26.101 2.494 32.624-9l65.08-114.163 39.334-68.999 115.682 93.911L960 1184.001l-15.127 18.633c10.29 8.354 25.406 6.783 33.76-3.507a24.108 24.108 0 0 0 2.696-4.116l125.01-204.402 104.118 24.731-.002.011c12.875 3.058 25.793-4.884 28.882-17.745l63.726-223.043c3.624-12.736-3.764-26-16.5-29.624-12.736-3.624-26 3.764-29.624 16.5l-57.693 201.925-97.841-23.24c-10.064-2.79-21.158 1.262-26.878 10.614l20.474 12.522-20.438-12.47-120.723 197.395-114.835-93.223a24.018 24.018 0 0 0-4.717-3.513c-11.515-6.563-26.172-2.55-32.736 8.965l20.85 11.885-20.812-11.812-53.324 93.54-65.08 114.163z" />
  
  <path d="M728 767.999c0-13.254-10.746-24-24-24s-24 10.746-24 24V1280c0 13.254 10.746 24 24 24h640c13.254 0 24-10.746 24-24s-10.746-24-24-24H728V767.999z" />
</svg>
