<?xml version="1.0" encoding="UTF-8"?>
<!-- Generator: Adobe Illustrator 27.8.1, SVG Export Plug-In . SVG Version: 6.00 Build 0)  -->
<svg width="512" height="512" version="1.1" viewBox="0 0 512 512" xml:space="preserve" xmlns="http://www.w3.org/2000/svg">
	
<path d="m437 25-39 1v93l-142-89-249 157 20 31 230-144 141 88v20c16 7 28 19 39 31v-26l50 31 20-31-70-44v-118zm-278 168c-56 2-98 55-95 108-3 49 35 95 83 102 35 5 74-10 90-42 13-14 23-13 36-0.2 22 43 81 54 121 32 33-18 55-55 53-92 3-44-31-110-108-107-77 0-117-0.8-180-0.8zm196 37c22 0.4 59 27 56 73 3 36-33 69-69 64-17-1-29-13-38-27-22-26-32-27-60-25-13 3-27 13-34 23-7 11-14 23-28 27-27 10-58-3-73-27-4-7-30-54 25-99 20-11 43-7 64-8 52 0.6 157-1 157-1zm82 155c-12 13-25 22-39 29v6c0 8-7 15-15 15h-54v39h54c30 0 55-24 55-55l-1-34zm-135 44v53h18v-53h-18z"/>



</svg>
