<svg viewBox="0 0 512 512.0131" xmlns="http://www.w3.org/2000/svg"><path d="M341 64.01H85q-17 0-29.5 12.5T43 107.01v106q0 18 12.5 30.5t29.5 12.5h68q6 0 11.5 3.5t8.5 9.5q5 17 21 25t33 3q20-7 27-28 2-6 7.5-9.5t12.5-3.5h67q18 0 30.5-12.5t12.5-30.5v-106q0-18-12.5-30.5T341 64.01zm0 149h-99q-4-8-11.5-14t-17.5-7q-9 1-16.5 7t-11.5 14H85v-106h256v106zm128-170v288q0 37-18.5 69t-50.5 50.5q-32 18.5-69 18.5-28 0-53-10.5t-45-29.5q-32 8-62-4t-49-38l41-18q14 15 33.5 19t38.5-4q6-3 12-7 13-10 20-25t6-32l40-18q7 30-3.5 59t-34.5 48q25 18 56 18 40 0 68-28t28-68v-288h42z"/></svg>