<svg viewBox="0 0 32 32" xmlns="http://www.w3.org/2000/svg">
<path d="M22.3574 14.5547C22.1945 14.7384 21.9809 14.8697 21.7434 14.932C21.5059 14.9943 21.2553 14.9847 21.0233 14.9046C20.7912 14.8244 20.5881 14.6773 20.4397 14.4817C20.2913 14.2862 20.2042 14.051 20.1895 13.8059C20.1747 13.5609 20.233 13.3169 20.3568 13.105C20.4807 12.893 20.6647 12.7226 20.8854 12.6151C21.1062 12.5077 21.3538 12.4682 21.5971 12.5015C21.8403 12.5349 22.0682 12.6396 22.2519 12.8024C22.4982 13.0208 22.6478 13.3281 22.6675 13.6567C22.6873 13.9853 22.5758 14.3083 22.3574 14.5547ZM21.4875 23.1334C17.5935 24.5058 13.5074 23.4908 9.33713 20.1176L4.1067 22.5876C3.95979 22.6569 3.79573 22.6814 3.63497 22.6581C3.47421 22.6349 3.32385 22.5648 3.20265 22.4566L3.16317 22.4216C3.04265 22.3005 2.96258 22.1451 2.93394 21.9766C2.9053 21.8082 2.9295 21.635 3.00322 21.4809L5.41391 16.4534L2.42181 11.7512C2.32924 11.6073 2.28355 11.4383 2.291 11.2674C2.29846 11.0965 2.35871 10.9321 2.46345 10.7968C2.5682 10.6615 2.71229 10.5621 2.8759 10.5121C3.03951 10.4621 3.2146 10.464 3.37706 10.5176L8.86606 12.3422C12.6009 8.4953 16.535 6.9981 20.5647 7.89125C23.4233 8.5259 25.734 10.2839 27.1703 11.6483C28.5692 12.9768 29.6639 14.4489 29.7666 14.7791C29.8098 14.9125 29.8183 15.0547 29.7915 15.1923C29.7267 15.5289 28.8173 17.1224 27.5902 18.6113C26.3323 20.1364 24.2493 22.1604 21.4875 23.1334ZM15.2264 21.592C14.7527 20.685 14.5469 19.6619 14.6332 18.6422C14.7195 17.6226 15.0942 16.6486 15.7136 15.834C15.001 15.0999 14.5122 14.1781 14.3042 13.1765C14.0962 12.1748 14.1777 11.1346 14.5391 10.1775C12.9116 10.9272 11.3029 12.1547 9.71292 13.86C9.60489 13.9764 9.46567 14.0592 9.31187 14.0986C9.15808 14.138 8.99619 14.1323 8.84553 14.0822L5.06728 12.8259L7.05739 15.9529C7.13286 16.0716 7.17683 16.2075 7.18516 16.3479C7.19348 16.4884 7.16588 16.6286 7.10497 16.7553L5.50355 20.0964L9.106 18.3964C9.24956 18.3289 9.4095 18.304 9.56678 18.3248C9.72406 18.3456 9.87204 18.4112 9.99311 18.5137C11.7728 20.0167 13.5173 21.0428 15.2264 21.592ZM28.021 15.0923C27.1315 13.8892 23.814 9.84259 19.245 9.35194C18.4879 9.27175 17.7234 9.29485 16.9725 9.42062C16.5847 9.79899 16.2841 10.2574 16.0918 10.7639C15.8995 11.2704 15.8199 11.8128 15.8588 12.3532C15.8977 12.8936 16.0541 13.419 16.3169 13.8928C16.5798 14.3665 16.9429 14.7772 17.3809 15.0961C17.4796 15.168 17.5611 15.2607 17.6197 15.3678C17.6783 15.4749 17.7125 15.5936 17.7199 15.7154C17.7272 15.8373 17.7075 15.9592 17.6622 16.0725C17.6168 16.1858 17.547 16.2877 17.4576 16.3709C17.061 16.7403 16.7499 17.1918 16.5458 17.6939C16.3418 18.1961 16.2498 18.7367 16.2764 19.278C16.3029 19.8193 16.4473 20.3483 16.6994 20.8281C16.9515 21.3079 17.3053 21.7268 17.7361 22.0557C18.4951 22.0889 19.2551 22.0185 19.9951 21.8464C24.4701 20.8134 27.2809 16.395 28.021 15.0923Z"/>
</svg>
