<svg viewBox="0 0 11 14" xmlns="http://www.w3.org/2000/svg">
<path d="M5.64578 11.9586C4.03595 11.9556 2.73233 10.652 2.72941 9.04219C2.72941 8.88179 2.59817 8.75055 2.43776 8.75055C2.27735 8.75055 2.14612 8.88179 2.14612 9.04219C2.14904 10.9728 3.71513 12.5389 5.64576 12.5418C5.80617 12.5418 5.9374 12.4106 5.9374 12.2502C5.93743 12.0898 5.80619 11.9586 5.64578 11.9586Z"/>
<path d="M5.70122 0.0831096C5.58748 -0.0277032 5.40668 -0.0277032 5.29584 0.0831096C5.10918 0.266841 0.687988 4.62971 0.687988 9.083C0.687988 11.7952 2.84609 14 5.49999 14C8.15389 14 10.312 11.7952 10.312 9.083C10.312 4.60347 5.89077 0.266841 5.70122 0.0831096ZM5.49999 13.4167C3.16691 13.4167 1.27125 11.4715 1.27125 9.083C1.27125 5.40256 4.6309 1.62585 5.49999 0.710119C6.36908 1.62295 9.72873 5.38214 9.72873 9.083C9.7287 11.4715 7.83015 13.4167 5.49999 13.4167Z"/>
</svg>
