<svg width="17" height="16" viewBox="0 0 17 16" fill="none" xmlns="http://www.w3.org/2000/svg">
<path d="M11.375 2.98439C10.603 2.09278 9.73409 1.28992 8.78438 0.590637C8.70031 0.531744 8.60015 0.500153 8.4975 0.500153C8.39485 0.500153 8.2947 0.531744 8.21063 0.590637C7.26266 1.29021 6.39545 2.09307 5.625 2.98439C3.90688 4.95751 3 7.03751 3 9.00001C3 10.4587 3.57946 11.8577 4.61091 12.8891C5.64236 13.9206 7.04131 14.5 8.5 14.5C9.95869 14.5 11.3576 13.9206 12.3891 12.8891C13.4205 11.8577 14 10.4587 14 9.00001C14 7.03751 13.0931 4.95751 11.375 2.98439ZM8.5 13.5C7.30693 13.4987 6.16311 13.0242 5.31948 12.1805C4.47585 11.3369 4.00132 10.1931 4 9.00001C4 5.42314 7.46687 2.43751 8.5 1.62501C9.53313 2.43751 13 5.42189 13 9.00001C12.9987 10.1931 12.5241 11.3369 11.6805 12.1805C10.8369 13.0242 9.69307 13.4987 8.5 13.5ZM11.9931 9.58376C11.8635 10.308 11.5151 10.975 10.9948 11.4952C10.4745 12.0154 9.80734 12.3636 9.08313 12.4931C9.05563 12.4975 9.02784 12.4998 9 12.5C8.87458 12.5 8.75375 12.4528 8.66148 12.3679C8.56921 12.2829 8.51223 12.1664 8.50185 12.0414C8.49146 11.9164 8.52843 11.7921 8.60542 11.6931C8.68242 11.5941 8.7938 11.5276 8.9175 11.5069C9.95312 11.3325 10.8319 10.4538 11.0075 9.41626C11.0297 9.28548 11.103 9.16887 11.2112 9.0921C11.3193 9.01533 11.4536 8.98468 11.5844 9.00689C11.7152 9.0291 11.8318 9.10236 11.9085 9.21054C11.9853 9.31873 12.016 9.45298 11.9937 9.58376H11.9931Z" fill="#1E70FE"/>
</svg>
