<svg viewBox="0 0 16 16" xmlns="http://www.w3.org/2000/svg">
<path d="M15.5 8C15.5 8.13261 15.4473 8.25979 15.3536 8.35355C15.2598 8.44732 15.1326 8.5 15 8.5H13.4775C13.4236 9.10482 13.2687 9.69634 13.0194 10.25C12.9799 10.338 12.9159 10.4128 12.8349 10.4652C12.754 10.5177 12.6596 10.5456 12.5631 10.5456C12.4926 10.5456 12.4229 10.5305 12.3588 10.5013C12.2381 10.4467 12.144 10.3465 12.0971 10.2226C12.0503 10.0988 12.0544 9.9614 12.1088 9.84062C12.466 9.04136 12.5826 8.15529 12.4442 7.29081C12.3058 6.42633 11.9185 5.62092 11.3296 4.97312C10.7407 4.32531 9.9757 3.8632 9.12828 3.64331C8.28086 3.42342 7.38772 3.45528 6.55813 3.735C6.49549 3.75797 6.42889 3.76818 6.36225 3.76502C6.29561 3.76185 6.23028 3.74539 6.1701 3.71659C6.10992 3.68779 6.05612 3.64723 6.01185 3.59732C5.96759 3.5474 5.93376 3.48913 5.91236 3.42594C5.89097 3.36275 5.88243 3.29592 5.88726 3.22938C5.89209 3.16284 5.91019 3.09794 5.94049 3.0385C5.97079 2.97906 6.01268 2.92629 6.06369 2.88329C6.11469 2.84029 6.17379 2.80793 6.2375 2.78813C6.64636 2.65013 7.07016 2.56117 7.5 2.52312V1C7.5 0.867392 7.55268 0.740215 7.64645 0.646447C7.74021 0.552678 7.86739 0.5 8 0.5C8.13261 0.5 8.25979 0.552678 8.35355 0.646447C8.44732 0.740215 8.5 0.867392 8.5 1V2.52312C9.77993 2.64163 10.9781 3.20404 11.887 4.11296C12.796 5.02188 13.3584 6.22007 13.4769 7.5H15C15.1326 7.5 15.2598 7.55268 15.3536 7.64645C15.4473 7.74021 15.5 7.86739 15.5 8ZM13.37 13.1637C13.4151 13.2122 13.4501 13.2691 13.473 13.3311C13.496 13.3932 13.5064 13.4592 13.5036 13.5253C13.5008 13.5914 13.485 13.6563 13.4569 13.7163C13.4289 13.7762 13.3893 13.83 13.3403 13.8745C13.2913 13.919 13.234 13.9533 13.1717 13.9755C13.1094 13.9977 13.0432 14.0073 12.9772 14.0037C12.9111 14.0002 12.8464 13.9835 12.7868 13.9548C12.7272 13.926 12.6739 13.8857 12.63 13.8363L11.3125 12.3894C10.4951 13.0077 9.52074 13.3845 8.5 13.4769V15C8.5 15.1326 8.44732 15.2598 8.35355 15.3536C8.25979 15.4473 8.13261 15.5 8 15.5C7.86739 15.5 7.74021 15.4473 7.64645 15.3536C7.55268 15.2598 7.5 15.1326 7.5 15V13.4769C6.22007 13.3584 5.02188 12.796 4.11296 11.887C3.20404 10.9781 2.64163 9.77993 2.52312 8.5H1C0.867392 8.5 0.740215 8.44732 0.646447 8.35355C0.552678 8.25979 0.5 8.13261 0.5 8C0.5 7.86739 0.552678 7.74021 0.646447 7.64645C0.740215 7.55268 0.867392 7.5 1 7.5H2.52312C2.6341 6.30142 3.13385 5.17197 3.94625 4.28375L2.63 2.83625C2.58492 2.78782 2.54989 2.73093 2.52696 2.66886C2.50403 2.6068 2.49364 2.5408 2.4964 2.47469C2.49917 2.40858 2.51502 2.34368 2.54305 2.28375C2.57108 2.22381 2.61073 2.17004 2.65969 2.12554C2.70866 2.08104 2.76597 2.0467 2.82831 2.02451C2.89064 2.00233 2.95676 1.99273 3.02283 1.99629C3.0889 1.99984 3.15361 2.01647 3.2132 2.04522C3.27279 2.07397 3.32609 2.11425 3.37 2.16375L13.37 13.1637ZM10.6375 11.645L4.625 5.02812C3.8985 5.85946 3.50297 6.92887 3.51367 8.03287C3.52437 9.13686 3.94055 10.1984 4.68302 11.0155C5.42549 11.8326 6.44244 12.3483 7.54037 12.4643C8.6383 12.5804 9.74059 12.2888 10.6375 11.645Z" />
</svg>
