<svg viewBox="0 0 512 512.0131" xmlns="http://www.w3.org/2000/svg"><path d="M166 43.01h180q33 0 61.5 16.5t45 45q16.5 28.5 16.5 61.5v180q0 33-16.5 61.5t-45 45q-28.5 16.5-61.5 16.5H166q-33 0-61.5-16.5t-45-45Q43 379.01 43 346.01v-180q0-33 16.5-61.5t45-45q28.5-16.5 61.5-16.5zm-4 42q-32 0-54.5 22.5T85 162.01v188q0 32 22.5 54.5t54.5 22.5h188q32 0 54.5-22.5t22.5-54.5v-188q0-32-22.5-54.5T350 85.01H162zm206 32q11 0 19 8t8 19q0 11-8 19t-19 8q-11 0-19-8t-8-19q0-11 8-19t19-8zm-112 32q29 0 53.5 14.5t39 39q14.5 24.5 14.5 53.5t-14.5 53.5q-14.5 24.5-39 39t-53.5 14.5q-29 0-53.5-14.5t-39-39q-14.5-24.5-14.5-53.5t14.5-53.5q14.5-24.5 39-39t53.5-14.5zm0 43q-27 0-45.5 18.5t-18.5 45.5q0 27 18.5 45.5t45.5 18.5q27 0 45.5-18.5t18.5-45.5q0-27-18.5-45.5t-45.5-18.5z"/></svg>