<svg viewBox="0 0 17 16" xmlns="http://www.w3.org/2000/svg">
<path d="M15.5573 14.3126C15.5163 14.364 15.4655 14.4067 15.408 14.4384C15.3505 14.4701 15.2872 14.4902 15.2219 14.4974C15.1566 14.5047 15.0905 14.499 15.0274 14.4807C14.9643 14.4624 14.9055 14.4318 14.8542 14.3908C14.831 14.372 12.4279 12.5001 8.66667 12.5001C4.90542 12.5001 2.50167 14.3751 2.47917 14.3914C2.42783 14.4324 2.36891 14.4629 2.30577 14.4812C2.24264 14.4995 2.17652 14.5051 2.1112 14.4978C1.97928 14.4831 1.85861 14.4166 1.77573 14.3129C1.69285 14.2093 1.65455 14.0769 1.66926 13.945C1.68397 13.8131 1.75048 13.6924 1.85417 13.6095C1.95604 13.5283 4.26167 11.7183 7.99729 11.5189C7.80297 10.7447 7.73355 9.94437 7.79167 9.14825C7.90042 7.79138 8.47417 5.98388 10.4792 4.61825C10.1371 4.53341 9.78533 4.4937 9.43292 4.50013C8.24542 4.53888 7.49917 5.232 7.15167 6.62013C7.12487 6.72853 7.06255 6.82484 6.97465 6.89371C6.88675 6.96258 6.77833 7.00004 6.66667 7.00013C6.62577 7.00034 6.58502 6.9953 6.54542 6.98513C6.4168 6.95295 6.30622 6.87101 6.23801 6.75732C6.1698 6.64363 6.14953 6.50751 6.18167 6.37888C6.75979 4.0695 8.25104 3.54013 9.40042 3.50388C9.85691 3.49394 10.3127 3.54545 10.7554 3.657C10.516 3.26138 10.166 2.84888 9.67979 2.64138C9.05479 2.37638 8.29417 2.492 7.41042 2.98575C7.29438 3.0504 7.15742 3.0663 7.02966 3.02997C6.90191 2.99363 6.79381 2.90803 6.72917 2.792C6.66452 2.67597 6.64861 2.53901 6.68495 2.41125C6.72128 2.28349 6.80688 2.1754 6.92292 2.11075C8.09417 1.45763 9.15542 1.327 10.0779 1.72325C10.8585 2.05825 11.3735 2.7095 11.6948 3.28575C12.081 2.68325 12.5623 2.27513 13.0942 2.102C13.8354 1.86013 14.6342 2.057 15.4692 2.68763C15.5703 2.76914 15.6357 2.88681 15.6516 3.01572C15.6675 3.14463 15.6326 3.27467 15.5543 3.37831C15.476 3.48194 15.3605 3.55104 15.2321 3.57098C15.1038 3.59092 14.9727 3.56013 14.8667 3.48513C14.3098 3.0645 13.8185 2.91888 13.4073 3.052C12.9517 3.19888 12.6029 3.677 12.3842 4.09013C12.8339 4.1813 13.2666 4.3422 13.6667 4.567C14.5798 5.08888 15.6667 6.19513 15.6667 8.50075C15.6667 8.63336 15.614 8.76054 15.5202 8.85431C15.4265 8.94807 15.2993 9.00075 15.1667 9.00075C15.0341 9.00075 14.9069 8.94807 14.8131 8.85431C14.7193 8.76054 14.6667 8.63336 14.6667 8.50075C14.6667 7.0345 14.1623 6.00075 13.1667 5.43825C13.0507 5.37238 12.9307 5.31393 12.8073 5.26325C13.1221 5.90327 13.2325 6.62462 13.1235 7.3295C13.045 7.851 12.8562 8.34978 12.5698 8.79263C12.4931 8.90012 12.3771 8.97293 12.247 8.99519C12.1168 9.01744 11.9832 8.98732 11.8752 8.91141C11.7672 8.8355 11.6936 8.71995 11.6704 8.58998C11.6473 8.46 11.6765 8.32615 11.7517 8.21763C11.7979 8.1495 12.7723 6.69388 11.5479 5.132C9.86042 6.08263 8.92979 7.46013 8.78792 9.23138C8.73265 9.99872 8.81369 10.7698 9.02729 11.5089C12.9429 11.622 15.3723 13.5295 15.4773 13.6126C15.5803 13.6951 15.6465 13.815 15.6615 13.9461C15.6765 14.0773 15.639 14.209 15.5573 14.3126ZM2.16667 8.75013C2.16667 8.40401 2.2693 8.06567 2.46159 7.77788C2.65389 7.49009 2.9272 7.26579 3.24697 7.13334C3.56674 7.00089 3.91861 6.96623 4.25807 7.03375C4.59754 7.10128 4.90936 7.26795 5.1541 7.51269C5.39884 7.75743 5.56552 8.06925 5.63304 8.40872C5.70056 8.74819 5.66591 9.10005 5.53346 9.41982C5.401 9.73959 5.1767 10.0129 4.88891 10.2052C4.60113 10.3975 4.26278 10.5001 3.91667 10.5001C3.45254 10.5001 3.00742 10.3158 2.67923 9.98757C2.35104 9.65938 2.16667 9.21426 2.16667 8.75013ZM3.16667 8.75013C3.16667 8.89846 3.21065 9.04347 3.29306 9.16681C3.37547 9.29014 3.49261 9.38627 3.62965 9.44304C3.7667 9.4998 3.9175 9.51466 4.06298 9.48572C4.20847 9.45678 4.34211 9.38535 4.447 9.28046C4.55189 9.17557 4.62332 9.04193 4.65226 8.89645C4.68119 8.75096 4.66634 8.60016 4.60958 8.46312C4.55281 8.32607 4.45668 8.20894 4.33334 8.12653C4.21001 8.04412 4.065 8.00013 3.91667 8.00013C3.71775 8.00013 3.52699 8.07915 3.38634 8.2198C3.24568 8.36045 3.16667 8.55122 3.16667 8.75013Z"/>
</svg>
