<?xml version="1.0" encoding="UTF-8"?>
<!-- Generator: Adobe Illustrator 27.8.1, SVG Export Plug-In . SVG Version: 6.00 Build 0)  -->
<svg width="512" height="512" version="1.1" viewBox="0 0 512 512" xml:space="preserve" xmlns="http://www.w3.org/2000/svg">
	<path d="m166 26c-3.6 24-7.2 47-11 71-0.29 2 0.029 5.1 1.7 7 7 8.4 10 18 11 29 3.2 33 6.6 66 9.9 99v-6e-3c1.1 8.1-7.6 10-8.3 0.27-3.4-33-7-67-10-100-2-22-20-36-38-36-7.4 0.077-9.3 1.8-8.6 9.5 3.5 35 7 70 11 105 3.1 31 6.1 61 9.3 92 1.4 18 7.1 36 16 52 2.9 34-13 62-37 86-0.65 39 71 70 139 43 0 0 39-39 53-72 13-3.8 23-8.7 33-16 37-26 56-63 62-107 2.5-19-0.31-38-2.2-56-0.46-4.4-3.5-6.9-7.9-6.5-5.9 0.5-12 1.8-17 5.4-12 7.9-17 19-16 33 1.9 26-25 34-50 31-21-3-39-21-42-42-2.9-21 4.4-38 21-50 16-11 36-12 51-1.4 3.3 2.3 6.4 5.6 10 8.7 14 12 34 11 47-1.4 3.9-4 4-7.4-0.04-11-7-7-14-14-21-21-34-34-88-35-124-2.3-1.8 1.6-3 4-3.4 6.1-1.7 7.2-3 15-4.6 22-1.2 5.3-8.8 3.6-7.9-1.6 4-24 10-47 19-69 5.5-13 12-26 18-39 8.2-17 2.2-38-14-48-4.9-3-8.1-2.2-11 2.9-13 24-27 47-37 73-0.64 1.7-1.4 4-1.3 6.4l8.4e-4 4e-3v4e-3c0.6 18 1.1 36 2.1 54 0.6 11 2.1 21 3.1 32 0.86 9.1-7.3 7.4-7.8 2.5-1.2-11-2.2-22-3.4-33-4.2-40-2.5-79 4.4-119 3.5-20-9.9-39-29-43-4.2-0.87-7.9 0.55-8.8 6.2z"/>
</svg>
