<svg viewBox="0 0 512 512.0131" xmlns="http://www.w3.org/2000/svg"><path d="M256 363.01q-18 0-30.5-12.5t-12.5-30.5q0-18 12.5-30.5t30.5-12.5q18 0 30.5 12.5t12.5 30.5q0 18-12.5 30.5t-30.5 12.5zm128 64v-214H128v214h256zm0-256q18 0 30.5 12.5t12.5 29.5v214q0 17-12.5 29.5t-30.5 12.5H128q-18 0-30.5-12.5T85 427.01v-214q0-17 12.5-29.5t30.5-12.5h21v-43q0-29 14.5-53.5t39-39q24.5-14.5 53.5-14.5t53.5 14.5q24.5 14.5 39 39t14.5 53.5v43h21zm-128-107q-27 0-45.5 18.5t-18.5 45.5v43h128v-43q0-27-18.5-45.5T256 64.01z"/></svg>