<svg viewBox="0 0 16 16" xmlns="http://www.w3.org/2000/svg">
<path d="M15 6C15 6.13261 14.9473 6.25979 14.8536 6.35355C14.7598 6.44732 14.6326 6.5 14.5 6.5H13.5V7.5C13.5 7.63261 13.4473 7.75979 13.3536 7.85355C13.2598 7.94732 13.1326 8 13 8C12.8674 8 12.7402 7.94732 12.6464 7.85355C12.5527 7.75979 12.5 7.63261 12.5 7.5V6.5H11.5C11.3674 6.5 11.2402 6.44732 11.1464 6.35355C11.0527 6.25979 11 6.13261 11 6C11 5.86739 11.0527 5.74021 11.1464 5.64645C11.2402 5.55268 11.3674 5.5 11.5 5.5H12.5V4.5C12.5 4.36739 12.5527 4.24021 12.6464 4.14645C12.7402 4.05268 12.8674 4 13 4C13.1326 4 13.2598 4.05268 13.3536 4.14645C13.4473 4.24021 13.5 4.36739 13.5 4.5V5.5H14.5C14.6326 5.5 14.7598 5.55268 14.8536 5.64645C14.9473 5.74021 15 5.86739 15 6ZM9 3.5H9.5V4C9.5 4.13261 9.55268 4.25979 9.64645 4.35355C9.74021 4.44732 9.86739 4.5 10 4.5C10.1326 4.5 10.2598 4.44732 10.3536 4.35355C10.4473 4.25979 10.5 4.13261 10.5 4V3.5H11C11.1326 3.5 11.2598 3.44732 11.3536 3.35355C11.4473 3.25979 11.5 3.13261 11.5 3C11.5 2.86739 11.4473 2.74021 11.3536 2.64645C11.2598 2.55268 11.1326 2.5 11 2.5H10.5V2C10.5 1.86739 10.4473 1.74021 10.3536 1.64645C10.2598 1.55268 10.1326 1.5 10 1.5C9.86739 1.5 9.74021 1.55268 9.64645 1.64645C9.55268 1.74021 9.5 1.86739 9.5 2V2.5H9C8.86739 2.5 8.74021 2.55268 8.64645 2.64645C8.55268 2.74021 8.5 2.86739 8.5 3C8.5 3.13261 8.55268 3.25979 8.64645 3.35355C8.74021 3.44732 8.86739 3.5 9 3.5ZM13.5481 9.5625C13.6063 9.63026 13.6453 9.71238 13.661 9.80031C13.6767 9.88824 13.6686 9.97877 13.6375 10.0625C13.2906 11.0087 12.7109 11.8522 11.9519 12.5153C11.193 13.1784 10.2793 13.6396 9.29507 13.8564C8.31087 14.0732 7.28792 14.0386 6.32062 13.7558C5.35332 13.473 4.47283 12.9512 3.76042 12.2383C3.04801 11.5255 2.52662 10.6447 2.24437 9.67728C1.96213 8.70982 1.92812 7.68685 2.14549 6.70277C2.36286 5.7187 2.8246 4.80524 3.48811 4.04668C4.15161 3.28812 4.99549 2.70891 5.94187 2.3625C6.02517 2.33199 6.11509 2.3242 6.20239 2.33991C6.2897 2.35562 6.37125 2.39428 6.43869 2.45192C6.50612 2.50956 6.55701 2.5841 6.58612 2.66789C6.61524 2.75169 6.62154 2.84172 6.60437 2.92875C6.42916 3.81561 6.47506 4.73196 6.73804 5.59687C7.00101 6.46177 7.47296 7.24859 8.11219 7.88781C8.75141 8.52704 9.53823 8.99899 10.4031 9.26196C11.268 9.52494 12.1844 9.57084 13.0712 9.39563C13.1584 9.37859 13.2485 9.38507 13.3323 9.4144C13.4161 9.44373 13.4906 9.49485 13.5481 9.5625ZM12.3363 10.4925C12.2244 10.4981 12.1119 10.5013 12 10.5013C10.2764 10.4994 8.624 9.81385 7.40538 8.59499C6.18675 7.37613 5.50149 5.72357 5.5 4C5.5 3.88812 5.5 3.77562 5.50875 3.66375C4.84349 4.04657 4.27529 4.57741 3.84819 5.21514C3.42108 5.85287 3.14652 6.58037 3.04579 7.34127C2.94506 8.10218 3.02086 8.87606 3.26732 9.60295C3.51378 10.3299 3.92428 10.9903 4.46701 11.533C5.00975 12.0757 5.67015 12.4862 6.39705 12.7327C7.12394 12.9791 7.89782 13.0549 8.65873 12.9542C9.41963 12.8535 10.1471 12.5789 10.7849 12.1518C11.4226 11.7247 11.9534 11.1565 12.3363 10.4913V10.4925Z"/>
</svg>
