<svg viewBox="0 0 512 512.0131" xmlns="http://www.w3.org/2000/svg"><path d="M405 288.01q-13 0-22.5-9.5t-9.5-22.5q0-13 9.5-22.5t23-9.5q13.5 0 22.5 9.5t9 22.5q0 13-9 22.5t-23 9.5zm-106 0q-14 0-23-9.5t-9-22.5q0-13 9-22.5t22.5-9.5q13.5 0 23 9.5t9.5 22.5q0 13-9.5 22.5t-22.5 9.5zm-107 0q-13 0-22.5-9.5t-9.5-22.5q0-13 9.5-22.5t22.5-9.5q13 0 22.5 9.5t9.5 22.5q0 13-9.5 22.5t-22.5 9.5zm277-224H149q-21 0-34 19l-115 173 115 173q6 9 15.5 14t20.5 5h318q18 0 30.5-12.5t12.5-30.5v-298q0-18-12.5-30.5T469 64.01z"/></svg>