<svg viewBox="0 0 17 16" xmlns="http://www.w3.org/2000/svg">
<path d="M10.9167 5C11.2628 5 11.6011 4.89737 11.8889 4.70507C12.1767 4.51278 12.401 4.23947 12.5335 3.9197C12.6659 3.59993 12.7006 3.24806 12.633 2.90859C12.5655 2.56913 12.3988 2.25731 12.1541 2.01256C11.9094 1.76782 11.5975 1.60115 11.2581 1.53363C10.9186 1.4661 10.5667 1.50076 10.247 1.63321C9.92719 1.76566 9.65388 1.98997 9.46159 2.27775C9.2693 2.56554 9.16666 2.90388 9.16666 3.25C9.16666 3.71413 9.35104 4.15925 9.67922 4.48744C10.0074 4.81563 10.4525 5 10.9167 5ZM10.9167 2.5C11.065 2.5 11.21 2.54399 11.3333 2.6264C11.4567 2.70881 11.5528 2.82594 11.6096 2.96299C11.6663 3.10003 11.6812 3.25083 11.6523 3.39632C11.6233 3.5418 11.5519 3.67544 11.447 3.78033C11.3421 3.88522 11.2085 3.95665 11.063 3.98559C10.9175 4.01453 10.7667 3.99968 10.6296 3.94291C10.4926 3.88614 10.3755 3.79002 10.2931 3.66668C10.2106 3.54334 10.1667 3.39834 10.1667 3.25C10.1667 3.05109 10.2457 2.86032 10.3863 2.71967C10.527 2.57902 10.7177 2.5 10.9167 2.5ZM16.5967 12.245L13.1867 6.49C13.0987 6.34008 12.9729 6.2159 12.8219 6.1299C12.6708 6.04391 12.4998 5.99911 12.326 6C12.1523 5.99909 11.9814 6.04389 11.8305 6.12989C11.6795 6.2159 11.5538 6.34009 11.466 6.49L9.83104 9.25L7.02854 4.49375C6.94023 4.34366 6.81426 4.21924 6.66309 4.13279C6.51192 4.04635 6.3408 4.00087 6.16666 4.00087C5.99252 4.00087 5.8214 4.04635 5.67023 4.13279C5.51907 4.21924 5.3931 4.34366 5.30479 4.49375L0.736037 12.2463C0.691316 12.3222 0.667456 12.4086 0.666873 12.4967C0.666291 12.5848 0.689006 12.6715 0.732719 12.748C0.776431 12.8245 0.839588 12.8881 0.915793 12.9324C0.991997 12.9766 1.07854 13 1.16666 13H16.1667C16.2549 13 16.3416 12.9766 16.4179 12.9323C16.4942 12.8879 16.5574 12.8241 16.601 12.7475C16.6447 12.6708 16.6673 12.5839 16.6666 12.4956C16.6658 12.4074 16.6417 12.3209 16.5967 12.245ZM6.16666 5L7.63979 7.5H4.69354L6.16666 5ZM2.04166 12L4.10416 8.5H8.22916L9.40041 10.4875L10.2917 12H2.04166ZM11.4523 12L10.411 10.2325L12.326 7L15.2917 12H11.4523Z"/>
</svg>
