<svg width="16" height="16" viewBox="0 0 16 16" fill="none" xmlns="http://www.w3.org/2000/svg">
<path d="M15.4769 2.9931C15.4697 2.87078 15.4179 2.75534 15.3313 2.6687C15.2446 2.58206 15.1292 2.53025 15.0069 2.5231C11.7719 2.3356 9.17437 3.31935 8.05812 5.16185C7.32062 6.37998 7.32187 7.85935 8.04812 9.2706C7.63475 9.7627 7.33264 10.3383 7.1625 10.9581L6.14562 9.93748C6.63437 8.91685 6.61562 7.8531 6.08312 6.96935C5.25812 5.60748 3.35375 4.87748 0.989373 5.01623C0.867052 5.02337 0.751611 5.07518 0.664969 5.16182C0.578328 5.24847 0.526517 5.36391 0.519373 5.48623C0.379998 7.8506 1.11062 9.75498 2.4725 10.58C2.92191 10.8546 3.43834 10.9999 3.965 11C4.47618 10.9937 4.97942 10.8726 5.4375 10.6456L7 12.2081V14C7 14.1326 7.05268 14.2598 7.14644 14.3535C7.24021 14.4473 7.36739 14.5 7.5 14.5C7.63261 14.5 7.75978 14.4473 7.85355 14.3535C7.94732 14.2598 8 14.1326 8 14V12.1569C7.99777 11.3614 8.26846 10.5893 8.76687 9.96935C9.40997 10.3054 10.1232 10.4853 10.8487 10.4944C11.5502 10.4966 12.2387 10.305 12.8381 9.9406C14.6806 8.8256 15.6669 6.2281 15.4769 2.9931ZM2.98812 9.72498C2.02937 9.14435 1.48687 7.76998 1.5 5.99998C3.27 5.98498 4.64437 6.52935 5.225 7.4881C5.52812 7.9881 5.5775 8.57123 5.37875 9.17185L3.85312 7.64623C3.75859 7.55642 3.63272 7.50709 3.50234 7.50876C3.37196 7.51043 3.24738 7.56296 3.15518 7.65516C3.06298 7.74736 3.01045 7.87193 3.00878 8.00232C3.00711 8.1327 3.05644 8.25857 3.14625 8.3531L4.67187 9.87873C4.07125 10.0775 3.48875 10.0281 2.98812 9.72498ZM12.32 9.08623C11.4825 9.5931 10.4981 9.63185 9.49812 9.21123L12.8537 5.85498C12.9436 5.76045 12.9929 5.63457 12.9912 5.50419C12.9895 5.37381 12.937 5.24924 12.8448 5.15704C12.7526 5.06484 12.628 5.0123 12.4977 5.01063C12.3673 5.00896 12.2414 5.05829 12.1469 5.1481L8.79062 8.49998C8.36812 7.49998 8.40625 6.51498 8.91562 5.6781C9.78687 4.2406 11.8531 3.43935 14.4987 3.50123C14.5587 6.14623 13.7587 8.21498 12.32 9.08623Z" fill="#1E70FE"/>
</svg>
