<svg viewBox="0 0 16 16" xmlns="http://www.w3.org/2000/svg">
<path d="M15.4506 10.7834C15.4098 10.6985 15.3458 10.6269 15.2661 10.5769C15.1864 10.5268 15.0941 10.5002 15 10.5002H9V9.00023H13.5C13.5969 9.00022 13.6916 8.97208 13.7728 8.91923C13.8539 8.86638 13.918 8.7911 13.9572 8.70253C13.9964 8.61397 14.009 8.51592 13.9935 8.42031C13.978 8.32471 13.9351 8.23565 13.87 8.16398L9 2.8071V0.500226C8.99944 0.397164 8.96705 0.296791 8.90726 0.212846C8.84746 0.128901 8.76319 0.0654842 8.66597 0.0312754C8.56874 -0.00293325 8.46333 -0.00626257 8.36414 0.0217432C8.26496 0.0497489 8.17685 0.107721 8.11187 0.187726L1.61188 8.18773C1.55312 8.26112 1.51624 8.34959 1.50547 8.44298C1.49471 8.53638 1.51049 8.63092 1.55102 8.71575C1.59154 8.80058 1.65516 8.87227 1.73458 8.92259C1.81399 8.97291 1.90599 8.99981 2 9.00023H8V10.5002H1C0.905774 10.5002 0.813448 10.5267 0.733665 10.5769C0.653882 10.627 0.589889 10.6987 0.549061 10.7836C0.508233 10.8685 0.492233 10.9632 0.502904 11.0569C0.513575 11.1505 0.550484 11.2392 0.609375 11.3127L2.45937 13.6252C2.55285 13.7425 2.67161 13.8371 2.80678 13.902C2.94195 13.967 3.09004 14.0005 3.24 14.0002H12.76C12.91 14.0005 13.0581 13.967 13.1932 13.902C13.3284 13.8371 13.4471 13.7425 13.5406 13.6252L15.3906 11.3127C15.4495 11.2391 15.4864 11.1504 15.497 11.0567C15.5076 10.963 15.4915 10.8683 15.4506 10.7834ZM12.37 8.00023H9V4.29335L12.37 8.00023ZM3.05063 8.00023L8 1.90835V8.00023H3.05063ZM12.76 13.0002H3.24L2.04 11.5002H13.96L12.76 13.0002Z"/>
</svg>
