<svg viewBox="0 0 16 16" xmlns="http://www.w3.org/2000/svg">
<path d="M7.24965 12.2501C5.86979 12.2476 4.75241 11.1302 4.7499 9.75038C4.7499 9.61288 4.63741 9.5004 4.49992 9.5004C4.36243 9.5004 4.24994 9.61288 4.24994 9.75038C4.25245 11.4052 5.59481 12.7476 7.24963 12.7501C7.38712 12.7501 7.49961 12.6376 7.49961 12.5001C7.49963 12.3626 7.38714 12.2501 7.24965 12.2501Z"/>
<path d="M7.29705 2.07124C7.19956 1.97625 7.04459 1.97625 6.94958 2.07124C6.78959 2.22872 3 5.96833 3 9.78543C3 12.1102 4.8498 14 7.12457 14C9.39934 14 11.2491 12.1102 11.2491 9.78543C11.2491 5.94583 7.45953 2.22872 7.29705 2.07124ZM7.12457 13.5001C5.12479 13.5001 3.49994 11.8327 3.49994 9.78543C3.49994 6.63076 6.37964 3.39358 7.12457 2.60867C7.8695 3.3911 10.7492 6.61326 10.7492 9.78543C10.7492 11.8327 9.12185 13.5001 7.12457 13.5001Z"/>
<path d="M14.6308 3.02484L13.4219 2.57812L12.9765 1.36828C12.9502 1.29664 12.9025 1.23481 12.8398 1.19114C12.7772 1.14746 12.7027 1.12405 12.6264 1.12405C12.55 1.12405 12.4755 1.14746 12.4129 1.19114C12.3503 1.23481 12.3026 1.29664 12.2762 1.36828L11.8281 2.57812L10.6183 3.02344C10.5466 3.04981 10.4848 3.09752 10.4411 3.16013C10.3974 3.22275 10.374 3.29725 10.374 3.37359C10.374 3.44993 10.3974 3.52444 10.4411 3.58705C10.4848 3.64967 10.5466 3.69738 10.6183 3.72375L11.8281 4.17188L12.2734 5.38172C12.2998 5.45336 12.3475 5.51519 12.4101 5.55886C12.4727 5.60254 12.5472 5.62595 12.6236 5.62595C12.6999 5.62595 12.7744 5.60254 12.837 5.55886C12.8996 5.51519 12.9474 5.45336 12.9737 5.38172L13.4219 4.17188L14.6317 3.72656C14.7033 3.70019 14.7652 3.65248 14.8088 3.58987C14.8525 3.52725 14.8759 3.45275 14.8759 3.37641C14.8759 3.30007 14.8525 3.22556 14.8088 3.16295C14.7652 3.10033 14.7033 3.05262 14.6317 3.02625L14.6308 3.02484ZM13.2109 3.84891C13.1855 3.85829 13.1623 3.87308 13.1432 3.89226C13.124 3.91144 13.1092 3.93455 13.0998 3.96L12.625 5.24648L12.1511 3.96094C12.1417 3.93522 12.1268 3.91186 12.1075 3.89251C12.0881 3.87315 12.0648 3.85827 12.039 3.84891L10.7535 3.375L12.039 2.90109C12.0648 2.89173 12.0881 2.87685 12.1075 2.85749C12.1268 2.83814 12.1417 2.81478 12.1511 2.78906L12.625 1.50352L13.0989 2.78906C13.1083 2.81451 13.1231 2.83763 13.1422 2.85681C13.1614 2.87599 13.1845 2.89078 13.21 2.90016L14.4965 3.375L13.2109 3.84891ZM13.375 0.9375C13.375 0.887772 13.3947 0.840081 13.4299 0.804918C13.4651 0.769754 13.5127 0.75 13.5625 0.75H13.9375V0.375C13.9375 0.325272 13.9572 0.277581 13.9924 0.242417C14.0276 0.207254 14.0752 0.1875 14.125 0.1875C14.1747 0.1875 14.2224 0.207254 14.2576 0.242417C14.2927 0.277581 14.3125 0.325272 14.3125 0.375V0.75H14.6875C14.7372 0.75 14.7849 0.769754 14.8201 0.804918C14.8552 0.840081 14.875 0.887772 14.875 0.9375C14.875 0.987228 14.8552 1.03492 14.8201 1.07008C14.7849 1.10525 14.7372 1.125 14.6875 1.125H14.3125V1.5C14.3125 1.54973 14.2927 1.59742 14.2576 1.63258C14.2224 1.66775 14.1747 1.6875 14.125 1.6875C14.0752 1.6875 14.0276 1.66775 13.9924 1.63258C13.9572 1.59742 13.9375 1.54973 13.9375 1.5V1.125H13.5625C13.5127 1.125 13.4651 1.10525 13.4299 1.07008C13.3947 1.03492 13.375 0.987228 13.375 0.9375ZM15.8125 2.0625C15.8125 2.11223 15.7927 2.15992 15.7576 2.19508C15.7224 2.23025 15.6747 2.25 15.625 2.25H15.4375V2.4375C15.4375 2.48723 15.4177 2.53492 15.3826 2.57008C15.3474 2.60525 15.2997 2.625 15.25 2.625C15.2002 2.625 15.1526 2.60525 15.1174 2.57008C15.0822 2.53492 15.0625 2.48723 15.0625 2.4375V2.25H14.875C14.8252 2.25 14.7776 2.23025 14.7424 2.19508C14.7072 2.15992 14.6875 2.11223 14.6875 2.0625C14.6875 2.01277 14.7072 1.96508 14.7424 1.92992C14.7776 1.89475 14.8252 1.875 14.875 1.875H15.0625V1.6875C15.0625 1.63777 15.0822 1.59008 15.1174 1.55492C15.1526 1.51975 15.2002 1.5 15.25 1.5C15.2997 1.5 15.3474 1.51975 15.3826 1.55492C15.4177 1.59008 15.4375 1.63777 15.4375 1.6875V1.875H15.625C15.6747 1.875 15.7224 1.89475 15.7576 1.92992C15.7927 1.96508 15.8125 2.01277 15.8125 2.0625Z"/>
</svg>
