<svg width="13" height="16" viewBox="0 0 13 16" fill="none" xmlns="http://www.w3.org/2000/svg">
<path d="M12.3487 8.06625L9.12498 6.875L7.93748 3.64875C7.86716 3.45771 7.73992 3.29283 7.57295 3.17637C7.40598 3.0599 7.2073 2.99746 7.00373 2.99746C6.80015 2.99746 6.60147 3.0599 6.4345 3.17637C6.26753 3.29283 6.1403 3.45771 6.06998 3.64875L4.87498 6.875L1.64873 8.0625C1.45768 8.13282 1.29281 8.26005 1.17634 8.42702C1.05988 8.594 0.997437 8.79267 0.997437 8.99625C0.997437 9.19983 1.05988 9.3985 1.17634 9.56548C1.29281 9.73245 1.45768 9.85968 1.64873 9.93L4.87498 11.125L6.06248 14.3512C6.1328 14.5423 6.26003 14.7072 6.427 14.8236C6.59397 14.9401 6.79265 15.0025 6.99623 15.0025C7.1998 15.0025 7.39848 14.9401 7.56545 14.8236C7.73242 14.7072 7.85965 14.5423 7.92998 14.3512L9.12498 11.125L12.3512 9.9375C12.5423 9.86718 12.7071 9.73995 12.8236 9.57298C12.9401 9.406 13.0025 9.20733 13.0025 9.00375C13.0025 8.80017 12.9401 8.6015 12.8236 8.43452C12.7071 8.26755 12.5423 8.14032 12.3512 8.07L12.3487 8.06625ZM8.56248 10.2638C8.49461 10.2888 8.43297 10.3282 8.38183 10.3793C8.33068 10.4305 8.29124 10.4921 8.26623 10.56L6.99998 13.9906L5.73623 10.5625C5.71125 10.4939 5.67157 10.4316 5.61996 10.38C5.56835 10.3284 5.50606 10.2887 5.43748 10.2638L2.00935 9L5.43748 7.73625C5.50606 7.71128 5.56835 7.67159 5.61996 7.61998C5.67157 7.56837 5.71125 7.50608 5.73623 7.4375L6.99998 4.00938L8.26373 7.4375C8.28874 7.50537 8.32818 7.567 8.37933 7.61815C8.43047 7.6693 8.49211 7.70874 8.55998 7.73375L11.9906 9L8.56248 10.2638ZM8.99998 2.5C8.99998 2.36739 9.05266 2.24021 9.14642 2.14645C9.24019 2.05268 9.36737 2 9.49998 2H10.5V1C10.5 0.867392 10.5527 0.740215 10.6464 0.646447C10.7402 0.552678 10.8674 0.5 11 0.5C11.1326 0.5 11.2598 0.552678 11.3535 0.646447C11.4473 0.740215 11.5 0.867392 11.5 1V2H12.5C12.6326 2 12.7598 2.05268 12.8535 2.14645C12.9473 2.24021 13 2.36739 13 2.5C13 2.63261 12.9473 2.75979 12.8535 2.85355C12.7598 2.94732 12.6326 3 12.5 3H11.5V4C11.5 4.13261 11.4473 4.25979 11.3535 4.35355C11.2598 4.44732 11.1326 4.5 11 4.5C10.8674 4.5 10.7402 4.44732 10.6464 4.35355C10.5527 4.25979 10.5 4.13261 10.5 4V3H9.49998C9.36737 3 9.24019 2.94732 9.14642 2.85355C9.05266 2.75979 8.99998 2.63261 8.99998 2.5ZM15.5 5.5C15.5 5.63261 15.4473 5.75979 15.3535 5.85355C15.2598 5.94732 15.1326 6 15 6H14.5V6.5C14.5 6.63261 14.4473 6.75979 14.3535 6.85355C14.2598 6.94732 14.1326 7 14 7C13.8674 7 13.7402 6.94732 13.6464 6.85355C13.5527 6.75979 13.5 6.63261 13.5 6.5V6H13C12.8674 6 12.7402 5.94732 12.6464 5.85355C12.5527 5.75979 12.5 5.63261 12.5 5.5C12.5 5.36739 12.5527 5.24021 12.6464 5.14645C12.7402 5.05268 12.8674 5 13 5H13.5V4.5C13.5 4.36739 13.5527 4.24021 13.6464 4.14645C13.7402 4.05268 13.8674 4 14 4C14.1326 4 14.2598 4.05268 14.3535 4.14645C14.4473 4.24021 14.5 4.36739 14.5 4.5V5H15C15.1326 5 15.2598 5.05268 15.3535 5.14645C15.4473 5.24021 15.5 5.36739 15.5 5.5Z" fill="#1E70FE"/>
</svg>
