<svg viewBox="0 0 16 16" xmlns="http://www.w3.org/2000/svg">
<path d="M8 3.5C7.60444 3.5 7.21776 3.6173 6.88886 3.83706C6.55996 4.05682 6.30362 4.36918 6.15224 4.73463C6.00087 5.10009 5.96126 5.50222 6.03843 5.89018C6.1156 6.27814 6.30608 6.63451 6.58579 6.91421C6.86549 7.19392 7.22186 7.3844 7.60982 7.46157C7.99778 7.53874 8.39991 7.49913 8.76537 7.34776C9.13082 7.19638 9.44318 6.94004 9.66294 6.61114C9.8827 6.28224 10 5.89556 10 5.5C10 4.96957 9.78929 4.46086 9.41421 4.08579C9.03914 3.71071 8.53043 3.5 8 3.5ZM8 6.5C7.80222 6.5 7.60888 6.44135 7.44443 6.33147C7.27998 6.22159 7.15181 6.06541 7.07612 5.88268C7.00043 5.69996 6.98063 5.49889 7.01921 5.30491C7.0578 5.11093 7.15304 4.93275 7.29289 4.79289C7.43275 4.65304 7.61093 4.5578 7.80491 4.51921C7.99889 4.48063 8.19996 4.50043 8.38268 4.57612C8.56541 4.65181 8.72159 4.77998 8.83147 4.94443C8.94135 5.10888 9 5.30222 9 5.5C9 5.76522 8.89464 6.01957 8.70711 6.20711C8.51957 6.39464 8.26522 6.5 8 6.5ZM8 8.5C7.60444 8.5 7.21776 8.6173 6.88886 8.83706C6.55996 9.05682 6.30362 9.36918 6.15224 9.73463C6.00087 10.1001 5.96126 10.5022 6.03843 10.8902C6.1156 11.2781 6.30608 11.6345 6.58579 11.9142C6.86549 12.1939 7.22186 12.3844 7.60982 12.4616C7.99778 12.5387 8.39991 12.4991 8.76537 12.3478C9.13082 12.1964 9.44318 11.94 9.66294 11.6111C9.8827 11.2822 10 10.8956 10 10.5C10 9.96957 9.78929 9.46086 9.41421 9.08579C9.03914 8.71071 8.53043 8.5 8 8.5ZM8 11.5C7.80222 11.5 7.60888 11.4414 7.44443 11.3315C7.27998 11.2216 7.15181 11.0654 7.07612 10.8827C7.00043 10.7 6.98063 10.4989 7.01921 10.3049C7.0578 10.1109 7.15304 9.93275 7.29289 9.79289C7.43275 9.65304 7.61093 9.5578 7.80491 9.51921C7.99889 9.48063 8.19996 9.50043 8.38268 9.57612C8.56541 9.65181 8.72159 9.77998 8.83147 9.94443C8.94135 10.1089 9 10.3022 9 10.5C9 10.7652 8.89464 11.0196 8.70711 11.2071C8.51957 11.3946 8.26522 11.5 8 11.5ZM13.5 9H12.5V5H13.5C13.6326 5 13.7598 4.94732 13.8536 4.85355C13.9473 4.75979 14 4.63261 14 4.5C14 4.36739 13.9473 4.24021 13.8536 4.14645C13.7598 4.05268 13.6326 4 13.5 4H12.5V2.5C12.5 2.23478 12.3946 1.98043 12.2071 1.79289C12.0196 1.60536 11.7652 1.5 11.5 1.5H4.5C4.23478 1.5 3.98043 1.60536 3.79289 1.79289C3.60536 1.98043 3.5 2.23478 3.5 2.5V4H2.5C2.36739 4 2.24021 4.05268 2.14645 4.14645C2.05268 4.24021 2 4.36739 2 4.5C2 4.63261 2.05268 4.75979 2.14645 4.85355C2.24021 4.94732 2.36739 5 2.5 5H3.5V9H2.5C2.36739 9 2.24021 9.05268 2.14645 9.14645C2.05268 9.24021 2 9.36739 2 9.5C2 9.63261 2.05268 9.75979 2.14645 9.85355C2.24021 9.94732 2.36739 10 2.5 10H3.5V13.5C3.5 13.7652 3.60536 14.0196 3.79289 14.2071C3.98043 14.3946 4.23478 14.5 4.5 14.5H11.5C11.7652 14.5 12.0196 14.3946 12.2071 14.2071C12.3946 14.0196 12.5 13.7652 12.5 13.5V10H13.5C13.6326 10 13.7598 9.94732 13.8536 9.85355C13.9473 9.75979 14 9.63261 14 9.5C14 9.36739 13.9473 9.24021 13.8536 9.14645C13.7598 9.05268 13.6326 9 13.5 9ZM11.5 13.5H4.5V2.5H11.5V13.5Z"/>
</svg>
