<svg viewBox="0 0 18 18" xmlns="http://www.w3.org/2000/svg">
<path d="M16.2366 14.9062C15.1657 13.0549 13.5155 11.7274 11.5896 11.0981C12.5422 10.531 13.2823 9.66686 13.6963 8.63841C14.1103 7.60996 14.1752 6.47405 13.8811 5.40513C13.587 4.33621 12.9502 3.39338 12.0684 2.72142C11.1866 2.04947 10.1086 1.68555 9 1.68555C7.89136 1.68555 6.81337 2.04947 5.93158 2.72142C5.04979 3.39338 4.41295 4.33621 4.11886 5.40513C3.82478 6.47405 3.88971 7.60996 4.30368 8.63841C4.71765 9.66686 5.45777 10.531 6.41039 11.0981C4.48453 11.7267 2.8343 13.0542 1.76344 14.9062C1.72417 14.9702 1.69812 15.0415 1.68683 15.1158C1.67554 15.19 1.67924 15.2658 1.69771 15.3386C1.71618 15.4114 1.74905 15.4798 1.79437 15.5397C1.83969 15.5996 1.89655 15.6498 1.9616 15.6874C2.02664 15.7249 2.09855 15.7491 2.17308 15.7584C2.24762 15.7678 2.32326 15.7621 2.39556 15.7417C2.46786 15.7213 2.53534 15.6867 2.59403 15.6398C2.65272 15.5929 2.70142 15.5347 2.73727 15.4687C4.06195 13.1793 6.40336 11.8125 9 11.8125C11.5966 11.8125 13.938 13.1793 15.2627 15.4687C15.2986 15.5347 15.3473 15.5929 15.406 15.6398C15.4647 15.6867 15.5321 15.7213 15.6044 15.7417C15.6767 15.7621 15.7524 15.7678 15.8269 15.7584C15.9014 15.7491 15.9734 15.7249 16.0384 15.6874C16.1034 15.6498 16.1603 15.5996 16.2056 15.5397C16.251 15.4798 16.2838 15.4114 16.3023 15.3386C16.3208 15.2658 16.3245 15.19 16.3132 15.1158C16.3019 15.0415 16.2758 14.9702 16.2366 14.9062ZM5.0625 6.74996C5.0625 5.9712 5.29343 5.20992 5.72609 4.5624C6.15875 3.91488 6.7737 3.4102 7.49318 3.11218C8.21267 2.81416 9.00437 2.73619 9.76817 2.88812C10.532 3.04005 11.2336 3.41506 11.7842 3.96573C12.3349 4.5164 12.7099 5.21799 12.8618 5.98179C13.0138 6.74559 12.9358 7.53729 12.6378 8.25678C12.3398 8.97626 11.8351 9.59121 11.1876 10.0239C10.54 10.4565 9.77876 10.6875 9 10.6875C7.95605 10.6863 6.95518 10.2711 6.217 9.53296C5.47882 8.79478 5.06362 7.79391 5.0625 6.74996Z"/>
</svg>
