<svg viewBox="0 0 17 16" xmlns="http://www.w3.org/2000/svg">
<path d="M8.33332 1.5C7.04774 1.5 5.79103 1.88122 4.72211 2.59545C3.65319 3.30968 2.82007 4.32484 2.3281 5.51256C1.83613 6.70028 1.70741 8.00721 1.95821 9.26809C2.20902 10.529 2.82808 11.6872 3.73712 12.5962C4.64616 13.5052 5.80435 14.1243 7.06523 14.3751C8.32611 14.6259 9.63304 14.4972 10.8208 14.0052C12.0085 13.5132 13.0236 12.6801 13.7379 11.6112C14.4521 10.5423 14.8333 9.28558 14.8333 8C14.8315 6.27665 14.1461 4.62441 12.9275 3.40582C11.7089 2.18722 10.0567 1.50182 8.33332 1.5ZM8.33332 13.5C7.24552 13.5 6.18215 13.1774 5.27768 12.5731C4.37321 11.9687 3.66826 11.1098 3.25198 10.1048C2.8357 9.09977 2.72678 7.9939 2.939 6.927C3.15122 5.86011 3.67504 4.8801 4.44423 4.11091C5.21342 3.34172 6.19342 2.8179 7.26032 2.60568C8.32721 2.39346 9.43308 2.50238 10.4381 2.91866C11.4431 3.33494 12.3021 4.03989 12.9064 4.94436C13.5107 5.84883 13.8333 6.9122 13.8333 8C13.8317 9.45818 13.2517 10.8562 12.2206 11.8873C11.1895 12.9184 9.7915 13.4983 8.33332 13.5ZM8.33332 4.5C7.40536 4.50099 6.5157 4.87006 5.85954 5.52622C5.20338 6.18238 4.83431 7.07205 4.83332 8C4.83332 8.13261 4.78064 8.25979 4.68687 8.35355C4.5931 8.44732 4.46592 8.5 4.33332 8.5C4.20071 8.5 4.07353 8.44732 3.97976 8.35355C3.88599 8.25979 3.83332 8.13261 3.83332 8C3.83464 6.80693 4.30917 5.66311 5.1528 4.81948C5.99642 3.97585 7.14025 3.50132 8.33332 3.5C8.46592 3.5 8.5931 3.55268 8.68687 3.64645C8.78064 3.74021 8.83332 3.86739 8.83332 4C8.83332 4.13261 8.78064 4.25979 8.68687 4.35355C8.5931 4.44732 8.46592 4.5 8.33332 4.5ZM12.8333 8C12.832 9.19307 12.3575 10.3369 11.5138 11.1805C10.6702 12.0241 9.52638 12.4987 8.33332 12.5C8.20071 12.5 8.07353 12.4473 7.97976 12.3536C7.88599 12.2598 7.83332 12.1326 7.83332 12C7.83332 11.8674 7.88599 11.7402 7.97976 11.6464C8.07353 11.5527 8.20071 11.5 8.33332 11.5C9.26127 11.499 10.1509 11.1299 10.8071 10.4738C11.4633 9.81762 11.8323 8.92795 11.8333 8C11.8333 7.86739 11.886 7.74021 11.9798 7.64645C12.0735 7.55268 12.2007 7.5 12.3333 7.5C12.4659 7.5 12.5931 7.55268 12.6869 7.64645C12.7806 7.74021 12.8333 7.86739 12.8333 8ZM10.3333 8C10.3333 7.60444 10.216 7.21776 9.99625 6.88886C9.77649 6.55996 9.46413 6.30362 9.09868 6.15224C8.73323 6.00087 8.3311 5.96126 7.94314 6.03843C7.55517 6.1156 7.19881 6.30608 6.9191 6.58579C6.6394 6.86549 6.44892 7.22186 6.37175 7.60982C6.29457 7.99778 6.33418 8.39991 6.48556 8.76537C6.63693 9.13082 6.89328 9.44318 7.22218 9.66294C7.55107 9.8827 7.93775 10 8.33332 10C8.86375 10 9.37246 9.78929 9.74753 9.41421C10.1226 9.03914 10.3333 8.53043 10.3333 8ZM7.33332 8C7.33332 7.80222 7.39196 7.60888 7.50185 7.44443C7.61173 7.27998 7.76791 7.15181 7.95063 7.07612C8.13336 7.00043 8.33442 6.98063 8.52841 7.01921C8.72239 7.0578 8.90057 7.15304 9.04042 7.29289C9.18027 7.43275 9.27552 7.61093 9.3141 7.80491C9.35269 7.99889 9.33288 8.19996 9.2572 8.38268C9.18151 8.56541 9.05334 8.72159 8.88889 8.83147C8.72444 8.94135 8.5311 9 8.33332 9C8.0681 9 7.81375 8.89464 7.62621 8.70711C7.43867 8.51957 7.33332 8.26522 7.33332 8Z"/>
</svg>
