<svg viewBox="0 0 17 16" xmlns="http://www.w3.org/2000/svg">
<path d="M8.5 4.50003C8.63261 4.50003 8.75979 4.55271 8.85356 4.64648C8.94733 4.74025 9 4.86742 9 5.00003V8.50003C9 8.63264 8.94733 8.75982 8.85356 8.85358C8.75979 8.94735 8.63261 9.00003 8.5 9.00003C8.3674 9.00003 8.24022 8.94735 8.14645 8.85358C8.05268 8.75982 8 8.63264 8 8.50003V5.00003C8 4.86742 8.05268 4.74025 8.14645 4.64648C8.24022 4.55271 8.3674 4.50003 8.5 4.50003ZM7.75 10.75C7.75 10.8984 7.79399 11.0434 7.8764 11.1667C7.95881 11.29 8.07595 11.3862 8.21299 11.4429C8.35004 11.4997 8.50084 11.5146 8.64632 11.4856C8.79181 11.4567 8.92544 11.3853 9.03033 11.2804C9.13522 11.1755 9.20665 11.0418 9.23559 10.8963C9.26453 10.7509 9.24968 10.6001 9.19291 10.463C9.13615 10.326 9.04002 10.2088 8.91668 10.1264C8.79334 10.044 8.64834 10 8.5 10C8.30109 10 8.11033 10.079 7.96967 10.2197C7.82902 10.3604 7.75 10.5511 7.75 10.75ZM15.5 8.00003C15.5004 8.131 15.4748 8.26075 15.4247 8.38176C15.3746 8.50277 15.301 8.61265 15.2081 8.70503L9.205 14.7088C9.01764 14.895 8.76419 14.9996 8.5 14.9996C8.23582 14.9996 7.98237 14.895 7.795 14.7088L1.795 8.70503C1.60875 8.51767 1.50421 8.26422 1.50421 8.00003C1.50421 7.73585 1.60875 7.48239 1.795 7.29503L7.79813 1.29128C7.98549 1.10503 8.23894 1.00049 8.50313 1.00049C8.76732 1.00049 9.02077 1.10503 9.20813 1.29128L15.2113 7.29503C15.3035 7.38767 15.3766 7.49766 15.4261 7.61866C15.4757 7.73966 15.5008 7.86928 15.5 8.00003ZM14.5 8.00003L8.5 2.00003L2.5 8.00003L8.5 14L14.5 8.00003Z"/>
</svg>
