<svg viewBox="0 0 17 16" xmlns="http://www.w3.org/2000/svg">
<path d="M14.385 11.0781C14.4697 11.1797 14.5107 11.3108 14.499 11.4426C14.4873 11.5744 14.4238 11.6962 14.3225 11.7813C13.2375 12.6806 12.2687 13 11.385 13C10.2237 13 9.20871 12.4488 8.26434 11.9375C6.67997 11.0775 5.31184 10.335 3.32246 11.9838C3.27202 12.0263 3.21366 12.0584 3.15074 12.0783C3.08781 12.0982 3.02158 12.1054 2.95585 12.0996C2.89012 12.0938 2.8262 12.075 2.76776 12.0443C2.70933 12.0136 2.65755 11.9717 2.6154 11.9209C2.57325 11.8702 2.54156 11.8116 2.52217 11.7485C2.50278 11.6854 2.49607 11.6191 2.50242 11.5534C2.50877 11.4877 2.52806 11.424 2.55917 11.3658C2.59029 11.3076 2.63262 11.2561 2.68371 11.2144C5.19434 9.13438 7.07871 10.1569 8.74184 11.0594C10.3262 11.9188 11.6943 12.6613 13.6837 11.0131C13.7855 10.9293 13.9164 10.889 14.0477 10.9012C14.1791 10.9134 14.3003 10.977 14.385 11.0781ZM13.6806 7.51563C11.6912 9.16438 10.3231 8.42188 8.73872 7.56188C7.07559 6.66 5.19121 5.6375 2.68059 7.7175C2.57974 7.80257 2.51659 7.92404 2.50492 8.05546C2.49324 8.18688 2.53398 8.31758 2.61826 8.41909C2.70253 8.5206 2.82351 8.58469 2.95484 8.59739C3.08616 8.61008 3.21718 8.57036 3.31934 8.48688C5.30871 6.83813 6.67684 7.58063 8.26121 8.44063C9.20559 8.9525 10.2206 9.50313 11.3818 9.50313C12.2656 9.50313 13.2343 9.18375 14.3193 8.28438C14.3704 8.24262 14.4128 8.19117 14.4439 8.13298C14.475 8.07478 14.4943 8.01101 14.5006 7.94533C14.507 7.87965 14.5003 7.81336 14.4809 7.75028C14.4615 7.68721 14.4298 7.62859 14.3877 7.57782C14.3455 7.52705 14.2937 7.48513 14.2353 7.45446C14.1769 7.4238 14.1129 7.40501 14.0472 7.39917C13.9815 7.39333 13.9152 7.40056 13.8523 7.42044C13.7894 7.44032 13.731 7.47246 13.6806 7.515V7.51563ZM3.31934 4.9875C5.30871 3.33938 6.67684 4.08188 8.26121 4.94125C9.20559 5.45375 10.2206 6.00375 11.3818 6.00375C12.2656 6.00375 13.2343 5.68375 14.3193 4.785C14.3704 4.74325 14.4128 4.69179 14.4439 4.6336C14.475 4.57541 14.4943 4.51163 14.5006 4.44595C14.507 4.38027 14.5003 4.31398 14.4809 4.25091C14.4615 4.18783 14.4298 4.12922 14.3877 4.07845C14.3455 4.02768 14.2937 3.98575 14.2353 3.95509C14.1769 3.92443 14.1129 3.90563 14.0472 3.89979C13.9815 3.89395 13.9152 3.90118 13.8523 3.92106C13.7894 3.94094 13.731 3.97308 13.6806 4.01563C11.6912 5.66438 10.3231 4.92188 8.73872 4.06188C7.07559 3.16125 5.19121 2.13875 2.68059 4.21875C2.62771 4.25991 2.58364 4.31127 2.551 4.36979C2.51836 4.42831 2.49782 4.49279 2.49059 4.55941C2.48336 4.62602 2.4896 4.69341 2.50892 4.75757C2.52825 4.82173 2.56028 4.88134 2.6031 4.93288C2.64592 4.98442 2.69867 5.02682 2.7582 5.05758C2.81773 5.08833 2.88284 5.1068 2.94965 5.1119C3.01646 5.11699 3.08362 5.10861 3.14713 5.08724C3.21063 5.06587 3.2692 5.03195 3.31934 4.9875Z"/>
</svg>
